<?xml version="1.0" encoding="UTF-8" standalone="no"?>
<!-- Created with Inkscape (http://www.inkscape.org/) -->

<svg
   xmlns:dc="http://purl.org/dc/elements/1.1/"
   xmlns:cc="http://creativecommons.org/ns#"
   xmlns:rdf="http://www.w3.org/1999/02/22-rdf-syntax-ns#"
   xmlns:svg="http://www.w3.org/2000/svg"
   xmlns="http://www.w3.org/2000/svg"
   xmlns:sodipodi="http://sodipodi.sourceforge.net/DTD/sodipodi-0.dtd"
   xmlns:inkscape="http://www.inkscape.org/namespaces/inkscape"
   width="81.783028mm"
   height="42.706593mm"
   viewBox="0 0 81.78303 42.70659"
   version="1.1"
   id="svg8"
   inkscape:version="0.92.4 (5da689c313, 2019-01-14)"
   sodipodi:docname="logo.svg">
  <defs
     id="defs2" />
  <sodipodi:namedview
     id="base"
     pagecolor="#ffffff"
     bordercolor="#666666"
     borderopacity="1.0"
     inkscape:pageopacity="0.0"
     inkscape:pageshadow="2"
     inkscape:zoom="1.979899"
     inkscape:cx="98.881741"
     inkscape:cy="5.1133073"
     inkscape:document-units="mm"
     inkscape:current-layer="layer2"
     showgrid="true"
     showguides="false"
     inkscape:window-width="2560"
     inkscape:window-height="1376"
     inkscape:window-x="1920"
     inkscape:window-y="27"
     inkscape:window-maximized="1" />
  <metadata
     id="metadata5">
    <rdf:RDF>
      <cc:Work
         rdf:about="">
        <dc:format>image/svg+xml</dc:format>
        <dc:type
           rdf:resource="http://purl.org/dc/dcmitype/StillImage" />
        <dc:title />
      </cc:Work>
    </rdf:RDF>
  </metadata>
  <g
     inkscape:groupmode="layer"
     id="layer2"
     inkscape:label="Cookie"
     style="display:inline"
     transform="translate(-45.259218,-117.64853)">
    <g
       id="g4784">
      <path
         sodipodi:nodetypes="ssssscsssssscs"
         inkscape:connector-curvature="0"
         id="path4565"
         d="m 120.84977,146.15838 c -7.37359,6.61898 -0.37555,2.3872 -12.17022,7.5944 -11.794652,5.20721 -2.35542,2.19219 -16.653052,4.70865 -14.29763,2.51645 -3.3136,1.57878 -17.255726,1.22854 -13.94213,-0.35023 -5.304539,0.8893 -15.856872,-2.58409 -10.552334,-3.4734 -4.043411,0.52761 -7.986991,-9.44474 -3.943579,-9.97236 -6.962139,-5.4267 0.66729,-11.95299 7.629435,-6.52628 0.800829,-2.34133 12.507836,-7.43186 11.707003,-5.09054 1.371277,-1.79258 15.705953,-4.42975 14.33469,-2.63717 3.51183,-2.10975 17.39518,-1.6356 13.883352,0.47416 4.581472,-1.07507 15.435762,2.10116 10.85428,3.17624 4.50668,0.22639 9.77052,5.87711 5.26383,5.65071 4.76233,0.6989 3.85269,7.50136 -0.90966,6.80246 1.96122,1.84882 -5.41237,8.46781 z"
         inkscape:transform-center-y="0.10097334"
         inkscape:transform-center-x="-0.16892164"
         style="opacity:1;fill:#803300;fill-opacity:1;stroke:#552200;stroke-width:0.40741792;stroke-linecap:butt;stroke-miterlimit:4;stroke-dasharray:none;stroke-dashoffset:0;stroke-opacity:0.96078431;paint-order:normal" />
      <path
         sodipodi:nodetypes="ssssscsssssscs"
         inkscape:connector-curvature="0"
         style="opacity:1;fill:#a05a2c;fill-opacity:1;stroke:#d38d5f;stroke-width:0.40741792;stroke-linecap:butt;stroke-miterlimit:4;stroke-dasharray:none;stroke-dashoffset:0;stroke-opacity:0.96078431;paint-order:normal"
         inkscape:transform-center-x="-0.16892164"
         inkscape:transform-center-y="0.10097334"
         d="m 119.43236,142.18963 c -7.37359,6.61899 -0.37555,2.3872 -12.17021,7.5944 -11.794662,5.20721 -2.35543,2.1922 -16.653062,4.70865 -14.29763,2.51645 -3.31359,1.57878 -17.255718,1.22854 -13.94213,-0.35023 -5.30454,0.8893 -15.85687,-2.58409 -10.552339,-3.4734 -4.04342,0.52761 -7.986998,-9.44474 -3.943577,-9.97236 -6.962136,-5.4267 0.667293,-11.95298 7.629435,-6.52629 0.800828,-2.34134 12.507835,-7.43187 11.70701,-5.09054 1.37128,-1.79257 15.705958,-4.42975 14.33468,-2.63717 3.51182,-2.10975 17.39517,-1.63559 13.883352,0.47415 4.581482,-1.07508 15.435762,2.10116 10.85428,3.17623 4.50668,0.22638 9.77052,5.8771 5.26383,5.65071 4.76233,0.6989 3.85269,7.50136 -0.90966,6.80246 1.96123,1.84882 -5.41237,8.46781 z"
         id="path4570" />
      <g
         style="fill:#ffaaaa"
         transform="matrix(1.1880615,-0.05698918,0.02324446,1.1884796,-74.788508,-119.69005)"
         id="g4601">
        <path
           inkscape:connector-curvature="0"
           id="path4576"
           style="font-style:normal;font-variant:normal;font-weight:normal;font-stretch:normal;font-size:10.58333302px;line-height:1.25;font-family:Pacifico;-inkscape-font-specification:Pacifico;letter-spacing:0px;word-spacing:0px;fill:#ffaaaa;fill-opacity:1;stroke:none;stroke-width:0.37971517"
           d="m 122.31348,223.8864 q 0.13015,-0.13752 0.27812,-0.1875 0.23673,-0.08 0.53868,0.005 0.302,0.0851 0.59268,0.28314 0.45895,0.31271 0.55828,0.60658 0.11413,0.28887 -0.14367,0.64101 -0.4446,0.58677 -1.57535,1.2338 -1.14603,0.63662 -2.49248,1.09146 -1.86429,0.62978 -3.55031,0.76276 -1.70129,0.12257 -3.08765,-0.1887 -1.37157,-0.31625 -2.33537,-0.97295 -1.31566,-0.89643 -1.41979,-1.79675 -0.10464,-0.91575 1.08027,-1.737 -1.13303,0.1177 -2.26433,-0.17059 -1.11652,-0.29326 -1.92734,-0.84572 -1.10149,-0.75051 -1.27708,-1.54873 -0.17609,-0.81365 0.50424,-1.51122 0.68034,-0.69758 2.04157,-1.15742 1.83469,-0.61978 3.57816,-0.36679 1.72817,0.24257 3.02853,1.12858 0.90261,0.615 1.14314,1.11063 0.24003,0.48022 -0.3518,0.68015 -0.4143,0.13995 -0.83461,0.0948 -0.4356,-0.0555 -0.81806,-0.31613 -0.26008,-0.1772 -0.4921,-0.41066 -0.43089,-0.36897 -0.61447,-0.49405 -0.55074,-0.37525 -1.2868,-0.46962 -0.75136,-0.1048 -1.6835,0.21009 -1.25765,0.42485 -1.4615,1.05502 -0.20385,0.63016 0.72936,1.26601 0.71902,0.48991 1.75552,0.62312 1.03599,0.11778 2.36914,-0.2858 0.34084,-0.0995 0.61166,-0.0507 0.27071,0.0488 0.59205,0.26775 1.00969,0.68796 0.13723,0.99827 -1.19742,0.43574 -1.68997,0.92951 -0.47772,0.4888 -0.34278,0.95774 0.13445,0.45352 0.70049,0.83919 0.94851,0.64628 2.29623,0.68993 1.33242,0.0332 3.19671,-0.59654 1.22807,-0.41485 2.29861,-1.07274 1.07006,-0.67331 1.61823,-1.29506 z" />
        <path
           inkscape:connector-curvature="0"
           id="path4578"
           style="font-style:normal;font-variant:normal;font-weight:normal;font-stretch:normal;font-size:10.58333302px;line-height:1.25;font-family:Pacifico;-inkscape-font-specification:Pacifico;letter-spacing:0px;word-spacing:0px;fill:#ffaaaa;fill-opacity:1;stroke:none;stroke-width:0.37971517"
           d="m 126.3878,225.4257 q -0.91736,0.30989 -2.15323,0.0258 -1.23588,-0.28413 -2.35267,-1.04507 -1.22387,-0.83389 -1.76262,-1.7589 -0.55404,-0.93544 -0.30931,-1.68855 0.24421,-0.76854 1.26513,-1.11342 0.32552,-0.10996 0.5667,-0.0512 0.24085,0.0434 0.6513,0.24773 0.24957,-0.14662 0.58988,-0.26158 0.725,-0.24492 1.26043,0.11991 0.32127,0.21889 1.30792,1.11734 1.41902,1.31368 2.10745,1.78275 0.22947,0.15635 0.47075,0.21517 0.25603,0.0538 0.43354,-0.006 0.28112,-0.095 0.31345,-0.48009 0.017,-0.39554 -0.14378,-1.19877 -0.0366,-0.2059 0.18532,-0.28087 0.19236,-0.065 0.47951,0.0251 0.30199,0.0851 0.62326,0.30398 0.61193,0.41695 0.66736,0.74124 0.1736,0.73653 0.0284,1.33128 -0.14516,0.59475 -0.78138,0.80968 -0.48826,0.16494 -1.23914,0.0756 -0.75134,-0.10478 -1.55512,-0.44133 0.51567,1.1355 -0.6532,1.53036 z m -1.01249,-1.23273 q 0.3255,-0.10996 0.22366,-0.48095 -0.10182,-0.37097 -0.6265,-0.86418 l -2.26747,-2.10289 q -0.6061,0.22037 -0.66453,0.72342 -0.0589,0.48765 0.39529,1.1138 0.45421,0.62615 1.31093,1.20988 0.47425,0.32313 0.88128,0.4195 0.42183,0.0914 0.74734,-0.0186 z" />
        <path
           inkscape:connector-curvature="0"
           id="path4580"
           style="font-style:normal;font-variant:normal;font-weight:normal;font-stretch:normal;font-size:10.58333302px;line-height:1.25;font-family:Pacifico;-inkscape-font-specification:Pacifico;letter-spacing:0px;word-spacing:0px;fill:#ffaaaa;fill-opacity:1;stroke:none;stroke-width:0.37971517"
           d="m 128.22151,218.94377 q 0.73529,0.5312 1.16364,0.82306 1.10149,0.75051 1.83233,1.14289 0.73035,0.37694 1.2572,0.47961 0.5264,0.0872 0.98507,-0.0677 0.23675,-0.08 0.40928,-0.29417 0.17251,-0.21421 0.19407,-0.47095 0.01,-0.15922 0.17254,-0.2142 0.17755,-0.06 0.49528,0.051 0.31731,0.0955 0.60797,0.29356 0.29067,0.19805 0.44763,0.42568 0.17177,0.22262 0.13344,0.42267 -0.11155,0.70813 -1.08809,1.03802 -1.4056,0.47483 -3.26522,-0.12873 -1.87489,-0.61396 -3.8331,-1.94819 -0.67313,-0.45865 -1.31711,-0.94273 l -0.57704,0.19493 q -0.44388,0.14994 -0.7749,0.0903 -0.31625,-0.0647 -0.68342,-0.31485 -0.85671,-0.58373 -0.1909,-0.80865 l 0.84337,-0.2849 q -1.43128,-1.23157 -2.30558,-2.35507 -0.87431,-1.12349 -0.97541,-1.93129 -0.0863,-0.81278 0.75704,-1.09768 0.62143,-0.20993 1.54257,0.0558 0.92116,0.26572 1.77786,0.84944 2.37126,1.61568 2.20711,3.46417 l 1.65714,-0.55981 q 0.23675,-0.08 0.44743,-0.042 0.21071,0.038 0.50134,0.23601 1.0556,0.71923 -0.61634,1.28403 z m -4.64279,-4.76182 q -0.22194,0.075 0.0783,0.56604 0.29971,0.47564 1.07316,1.259 0.77297,0.76793 1.84938,1.66723 0.0928,-0.82651 -0.44197,-1.62815 -0.53521,-0.81706 -1.33073,-1.35909 -0.90261,-0.615 -1.22813,-0.50503 z" />
        <path
           inkscape:connector-curvature="0"
           id="path4582"
           style="font-style:normal;font-variant:normal;font-weight:normal;font-stretch:normal;font-size:10.58333302px;line-height:1.25;font-family:Pacifico;-inkscape-font-specification:Pacifico;letter-spacing:0px;word-spacing:0px;fill:#ffaaaa;fill-opacity:1;stroke:none;stroke-width:0.37971517"
           d="m 139.87032,229.67833 q -0.56224,0.18993 -1.41093,-0.14705 -0.83388,-0.34197 -2.18013,-1.25925 -1.98881,-1.35508 -3.23127,-2.75959 -0.31055,-0.34724 -0.21346,-0.58274 0.0966,-0.25089 0.64401,-0.43583 0.29591,-0.1 0.49075,-0.0879 0.19488,0.0121 0.40909,0.15806 0.24477,0.16677 0.87955,0.82548 0.46396,0.46693 0.83414,0.80963 0.35488,0.33228 0.96883,0.8109 -0.79379,-0.948 -1.07246,-1.69581 -0.26386,-0.75281 -0.0846,-1.21875 0.17877,-0.48137 0.69664,-0.65631 0.51786,-0.17494 0.96977,-0.0781 0.4667,0.0918 0.97155,0.43579 0.48956,0.33356 1.49351,1.30411 0.43233,0.41526 0.66336,0.61786 -1.14191,-1.53202 -1.09608,-2.42065 0.0459,-0.88861 0.83004,-1.15351 0.96174,-0.32489 1.95613,0.35264 0.59664,0.40652 1.83157,1.5797 1.04984,1.00183 1.4782,1.2937 0.61193,0.41694 1.04102,0.27199 0.29593,-0.1 0.32825,-0.48508 0.0318,-0.40054 -0.12898,-1.20377 -0.0366,-0.2059 0.18532,-0.28088 0.19236,-0.065 0.4795,0.0251 0.302,0.0851 0.62327,0.30398 0.61193,0.41695 0.66736,0.74123 0.1746,0.76739 -0.0451,1.3717 -0.20484,0.59933 -1.13699,0.91421 -0.75459,0.25491 -1.58295,0.0826 -0.84364,-0.18276 -1.70036,-0.76649 -0.42835,-0.29186 -1.3227,-1.11234 -0.77145,-0.72167 -1.13861,-0.97184 -0.24477,-0.16677 -0.40753,-0.11179 -0.19235,0.065 -0.0273,0.53933 0.14975,0.46394 0.63606,1.1572 0.48632,0.69327 1.19758,1.40408 0.57156,0.55532 0.59439,0.79707 0.0376,0.23676 -0.43582,0.39671 -0.48827,0.16494 -1.21407,-0.0732 -0.72627,-0.25358 -1.4147,-0.72265 -0.58134,-0.3961 -1.53488,-1.19659 -0.86068,-0.70711 -1.16665,-0.91559 -0.24477,-0.16678 -0.40753,-0.11179 -0.22194,0.075 -0.0115,0.56518 0.21045,0.49021 0.74163,1.1839 0.546,0.68869 1.17977,1.31654 0.55628,0.5449 0.5944,0.79707 0.0376,0.23676 -0.42103,0.39171 z" />
        <path
           inkscape:connector-curvature="0"
           id="path4584"
           style="font-style:normal;font-variant:normal;font-weight:normal;font-stretch:normal;font-size:10.58333302px;line-height:1.25;font-family:Pacifico;-inkscape-font-specification:Pacifico;letter-spacing:0px;word-spacing:0px;fill:#ffaaaa;fill-opacity:1;stroke:none;stroke-width:0.37971517"
           d="m 152.09795,222.46055 q 0.19234,-0.065 0.47949,0.0251 0.302,0.0851 0.62327,0.30398 0.55074,0.37526 0.69695,0.73124 0.24356,0.58817 -0.0699,1.06826 -0.29866,0.47509 -1.2308,0.78997 -1.42042,0.47984 -3.07662,0.15059 -1.67151,-0.33967 -3.17075,-1.36118 -1.05559,-0.71924 -1.52912,-1.47919 -0.48881,-0.77037 -0.26967,-1.39011 0.23395,-0.62473 1.19569,-0.94962 0.85816,-0.2899 1.91146,-0.10001 1.03801,0.17947 1.94061,0.79446 1.05559,0.71924 1.08073,1.49034 0.0246,0.75567 -1.29245,1.65275 1.05883,0.35953 1.9022,0.0746 0.60663,-0.20493 0.70066,-0.53293 0.10883,-0.333 -0.0617,-0.97701 -0.0519,-0.21633 0.17001,-0.2913 z m -5.10378,-1.00444 q -0.54744,0.18493 -0.2743,0.76312 0.28793,0.57317 1.22113,1.20901 l 0.0307,0.0209 q 0.65877,-0.44083 0.73349,-0.90263 0.0747,-0.4618 -0.49135,-0.84749 -0.29066,-0.19804 -0.62171,-0.25772 -0.33154,-0.0751 -0.59787,0.0149 z" />
        <path
           inkscape:connector-curvature="0"
           id="path4586"
           style="font-style:normal;font-variant:normal;font-weight:normal;font-stretch:normal;font-size:10.58333302px;line-height:1.25;font-family:Pacifico;-inkscape-font-specification:Pacifico;letter-spacing:0px;word-spacing:0px;fill:#ffaaaa;fill-opacity:1;stroke:none;stroke-width:0.37971517"
           d="m 154.56422,220.98815 q -0.29591,0.1 -0.62588,0.0712 -0.32996,-0.0288 -0.6207,-0.22688 l -0.10761,-0.0884 q -1.46189,-1.25242 -3.22048,-2.88796 -1.75861,-1.63554 -2.97973,-2.84455 -0.74238,-0.7471 0.30814,-1.10197 0.94693,-0.31989 1.57418,0.10748 0.13775,0.0939 0.26151,0.2235 1.23693,1.23486 2.91077,3.02376 1.65855,1.77847 2.77963,3.13044 0.32679,0.38854 -0.27984,0.59347 z m 3.09409,2.6812 q -0.65102,0.21992 -1.3585,0.0847 -0.69267,-0.14021 -1.28931,-0.54674 -0.68843,-0.46906 -0.73159,-0.87546 -0.0284,-0.41139 0.65225,-0.64131 0.65103,-0.21992 1.3131,-0.10057 0.66158,0.10394 1.30411,0.54173 0.70372,0.47949 0.74739,0.90132 0.0284,0.41139 -0.63745,0.63631 z" />
      </g>
      <g
         style="fill:#ff5555"
         id="g4742"
         transform="matrix(1.1880615,-0.05698918,0.02324446,1.1884796,-74.788508,-121.01297)">
        <path
           d="m 122.31348,223.8864 q 0.13015,-0.13752 0.27812,-0.1875 0.23673,-0.08 0.53868,0.005 0.302,0.0851 0.59268,0.28314 0.45895,0.31271 0.55828,0.60658 0.11413,0.28887 -0.14367,0.64101 -0.4446,0.58677 -1.57535,1.2338 -1.14603,0.63662 -2.49248,1.09146 -1.86429,0.62978 -3.55031,0.76276 -1.70129,0.12257 -3.08765,-0.1887 -1.37157,-0.31625 -2.33537,-0.97295 -1.31566,-0.89643 -1.41979,-1.79675 -0.10464,-0.91575 1.08027,-1.737 -1.13303,0.1177 -2.26433,-0.17059 -1.11652,-0.29326 -1.92734,-0.84572 -1.10149,-0.75051 -1.27708,-1.54873 -0.17609,-0.81365 0.50424,-1.51122 0.68034,-0.69758 2.04157,-1.15742 1.83469,-0.61978 3.57816,-0.36679 1.72817,0.24257 3.02853,1.12858 0.90261,0.615 1.14314,1.11063 0.24003,0.48022 -0.3518,0.68015 -0.4143,0.13995 -0.83461,0.0948 -0.4356,-0.0555 -0.81806,-0.31613 -0.26008,-0.1772 -0.4921,-0.41066 -0.43089,-0.36897 -0.61447,-0.49405 -0.55074,-0.37525 -1.2868,-0.46962 -0.75136,-0.1048 -1.6835,0.21009 -1.25765,0.42485 -1.4615,1.05502 -0.20385,0.63016 0.72936,1.26601 0.71902,0.48991 1.75552,0.62312 1.03599,0.11778 2.36914,-0.2858 0.34084,-0.0995 0.61166,-0.0507 0.27071,0.0488 0.59205,0.26775 1.00969,0.68796 0.13723,0.99827 -1.19742,0.43574 -1.68997,0.92951 -0.47772,0.4888 -0.34278,0.95774 0.13445,0.45352 0.70049,0.83919 0.94851,0.64628 2.29623,0.68993 1.33242,0.0332 3.19671,-0.59654 1.22807,-0.41485 2.29861,-1.07274 1.07006,-0.67331 1.61823,-1.29506 z"
           style="font-style:normal;font-variant:normal;font-weight:normal;font-stretch:normal;font-size:10.58333302px;line-height:1.25;font-family:Pacifico;-inkscape-font-specification:Pacifico;letter-spacing:0px;word-spacing:0px;fill:#ff5555;fill-opacity:1;stroke:none;stroke-width:0.37971517"
           id="path4730"
           inkscape:connector-curvature="0" />
        <path
           d="m 126.3878,225.4257 q -0.91736,0.30989 -2.15323,0.0258 -1.23588,-0.28413 -2.35267,-1.04507 -1.22387,-0.83389 -1.76262,-1.7589 -0.55404,-0.93544 -0.30931,-1.68855 0.24421,-0.76854 1.26513,-1.11342 0.32552,-0.10996 0.5667,-0.0512 0.24085,0.0434 0.6513,0.24773 0.24957,-0.14662 0.58988,-0.26158 0.725,-0.24492 1.26043,0.11991 0.32127,0.21889 1.30792,1.11734 1.41902,1.31368 2.10745,1.78275 0.22947,0.15635 0.47075,0.21517 0.25603,0.0538 0.43354,-0.006 0.28112,-0.095 0.31345,-0.48009 0.017,-0.39554 -0.14378,-1.19877 -0.0366,-0.2059 0.18532,-0.28087 0.19236,-0.065 0.47951,0.0251 0.30199,0.0851 0.62326,0.30398 0.61193,0.41695 0.66736,0.74124 0.1736,0.73653 0.0284,1.33128 -0.14516,0.59475 -0.78138,0.80968 -0.48826,0.16494 -1.23914,0.0756 -0.75134,-0.10478 -1.55512,-0.44133 0.51567,1.1355 -0.6532,1.53036 z m -1.01249,-1.23273 q 0.3255,-0.10996 0.22366,-0.48095 -0.10182,-0.37097 -0.6265,-0.86418 l -2.26747,-2.10289 q -0.6061,0.22037 -0.66453,0.72342 -0.0589,0.48765 0.39529,1.1138 0.45421,0.62615 1.31093,1.20988 0.47425,0.32313 0.88128,0.4195 0.42183,0.0914 0.74734,-0.0186 z"
           style="font-style:normal;font-variant:normal;font-weight:normal;font-stretch:normal;font-size:10.58333302px;line-height:1.25;font-family:Pacifico;-inkscape-font-specification:Pacifico;letter-spacing:0px;word-spacing:0px;fill:#ff5555;fill-opacity:1;stroke:none;stroke-width:0.37971517"
           id="path4732"
           inkscape:connector-curvature="0" />
        <path
           d="m 128.22151,218.94377 q 0.73529,0.5312 1.16364,0.82306 1.10149,0.75051 1.83233,1.14289 0.73035,0.37694 1.2572,0.47961 0.5264,0.0872 0.98507,-0.0677 0.23675,-0.08 0.40928,-0.29417 0.17251,-0.21421 0.19407,-0.47095 0.01,-0.15922 0.17254,-0.2142 0.17755,-0.06 0.49528,0.051 0.31731,0.0955 0.60797,0.29356 0.29067,0.19805 0.44763,0.42568 0.17177,0.22262 0.13344,0.42267 -0.11155,0.70813 -1.08809,1.03802 -1.4056,0.47483 -3.26522,-0.12873 -1.87489,-0.61396 -3.8331,-1.94819 -0.67313,-0.45865 -1.31711,-0.94273 l -0.57704,0.19493 q -0.44388,0.14994 -0.7749,0.0903 -0.31625,-0.0647 -0.68342,-0.31485 -0.85671,-0.58373 -0.1909,-0.80865 l 0.84337,-0.2849 q -1.43128,-1.23157 -2.30558,-2.35507 -0.87431,-1.12349 -0.97541,-1.93129 -0.0863,-0.81278 0.75704,-1.09768 0.62143,-0.20993 1.54257,0.0558 0.92116,0.26572 1.77786,0.84944 2.37126,1.61568 2.20711,3.46417 l 1.65714,-0.55981 q 0.23675,-0.08 0.44743,-0.042 0.21071,0.038 0.50134,0.23601 1.0556,0.71923 -0.61634,1.28403 z m -4.64279,-4.76182 q -0.22194,0.075 0.0783,0.56604 0.29971,0.47564 1.07316,1.259 0.77297,0.76793 1.84938,1.66723 0.0928,-0.82651 -0.44197,-1.62815 -0.53521,-0.81706 -1.33073,-1.35909 -0.90261,-0.615 -1.22813,-0.50503 z"
           style="font-style:normal;font-variant:normal;font-weight:normal;font-stretch:normal;font-size:10.58333302px;line-height:1.25;font-family:Pacifico;-inkscape-font-specification:Pacifico;letter-spacing:0px;word-spacing:0px;fill:#ff5555;fill-opacity:1;stroke:none;stroke-width:0.37971517"
           id="path4734"
           inkscape:connector-curvature="0" />
        <path
           d="m 139.87032,229.67833 q -0.56224,0.18993 -1.41093,-0.14705 -0.83388,-0.34197 -2.18013,-1.25925 -1.98881,-1.35508 -3.23127,-2.75959 -0.31055,-0.34724 -0.21346,-0.58274 0.0966,-0.25089 0.64401,-0.43583 0.29591,-0.1 0.49075,-0.0879 0.19488,0.0121 0.40909,0.15806 0.24477,0.16677 0.87955,0.82548 0.46396,0.46693 0.83414,0.80963 0.35488,0.33228 0.96883,0.8109 -0.79379,-0.948 -1.07246,-1.69581 -0.26386,-0.75281 -0.0846,-1.21875 0.17877,-0.48137 0.69664,-0.65631 0.51786,-0.17494 0.96977,-0.0781 0.4667,0.0918 0.97155,0.43579 0.48956,0.33356 1.49351,1.30411 0.43233,0.41526 0.66336,0.61786 -1.14191,-1.53202 -1.09608,-2.42065 0.0459,-0.88861 0.83004,-1.15351 0.96174,-0.32489 1.95613,0.35264 0.59664,0.40652 1.83157,1.5797 1.04984,1.00183 1.4782,1.2937 0.61193,0.41694 1.04102,0.27199 0.29593,-0.1 0.32825,-0.48508 0.0318,-0.40054 -0.12898,-1.20377 -0.0366,-0.2059 0.18532,-0.28088 0.19236,-0.065 0.4795,0.0251 0.302,0.0851 0.62327,0.30398 0.61193,0.41695 0.66736,0.74123 0.1746,0.76739 -0.0451,1.3717 -0.20484,0.59933 -1.13699,0.91421 -0.75459,0.25491 -1.58295,0.0826 -0.84364,-0.18276 -1.70036,-0.76649 -0.42835,-0.29186 -1.3227,-1.11234 -0.77145,-0.72167 -1.13861,-0.97184 -0.24477,-0.16677 -0.40753,-0.11179 -0.19235,0.065 -0.0273,0.53933 0.14975,0.46394 0.63606,1.1572 0.48632,0.69327 1.19758,1.40408 0.57156,0.55532 0.59439,0.79707 0.0376,0.23676 -0.43582,0.39671 -0.48827,0.16494 -1.21407,-0.0732 -0.72627,-0.25358 -1.4147,-0.72265 -0.58134,-0.3961 -1.53488,-1.19659 -0.86068,-0.70711 -1.16665,-0.91559 -0.24477,-0.16678 -0.40753,-0.11179 -0.22194,0.075 -0.0115,0.56518 0.21045,0.49021 0.74163,1.1839 0.546,0.68869 1.17977,1.31654 0.55628,0.5449 0.5944,0.79707 0.0376,0.23676 -0.42103,0.39171 z"
           style="font-style:normal;font-variant:normal;font-weight:normal;font-stretch:normal;font-size:10.58333302px;line-height:1.25;font-family:Pacifico;-inkscape-font-specification:Pacifico;letter-spacing:0px;word-spacing:0px;fill:#ff5555;fill-opacity:1;stroke:none;stroke-width:0.37971517"
           id="path4736"
           inkscape:connector-curvature="0" />
        <path
           d="m 152.09795,222.46055 q 0.19234,-0.065 0.47949,0.0251 0.302,0.0851 0.62327,0.30398 0.55074,0.37526 0.69695,0.73124 0.24356,0.58817 -0.0699,1.06826 -0.29866,0.47509 -1.2308,0.78997 -1.42042,0.47984 -3.07662,0.15059 -1.67151,-0.33967 -3.17075,-1.36118 -1.05559,-0.71924 -1.52912,-1.47919 -0.48881,-0.77037 -0.26967,-1.39011 0.23395,-0.62473 1.19569,-0.94962 0.85816,-0.2899 1.91146,-0.10001 1.03801,0.17947 1.94061,0.79446 1.05559,0.71924 1.08073,1.49034 0.0246,0.75567 -1.29245,1.65275 1.05883,0.35953 1.9022,0.0746 0.60663,-0.20493 0.70066,-0.53293 0.10883,-0.333 -0.0617,-0.97701 -0.0519,-0.21633 0.17001,-0.2913 z m -5.10378,-1.00444 q -0.54744,0.18493 -0.2743,0.76312 0.28793,0.57317 1.22113,1.20901 l 0.0307,0.0209 q 0.65877,-0.44083 0.73349,-0.90263 0.0747,-0.4618 -0.49135,-0.84749 -0.29066,-0.19804 -0.62171,-0.25772 -0.33154,-0.0751 -0.59787,0.0149 z"
           style="font-style:normal;font-variant:normal;font-weight:normal;font-stretch:normal;font-size:10.58333302px;line-height:1.25;font-family:Pacifico;-inkscape-font-specification:Pacifico;letter-spacing:0px;word-spacing:0px;fill:#ff5555;fill-opacity:1;stroke:none;stroke-width:0.37971517"
           id="path4738"
           inkscape:connector-curvature="0" />
        <path
           d="m 154.56422,220.98815 q -0.29591,0.1 -0.62588,0.0712 -0.32996,-0.0288 -0.6207,-0.22688 l -0.10761,-0.0884 q -1.46189,-1.25242 -3.22048,-2.88796 -1.75861,-1.63554 -2.97973,-2.84455 -0.74238,-0.7471 0.30814,-1.10197 0.94693,-0.31989 1.57418,0.10748 0.13775,0.0939 0.26151,0.2235 1.23693,1.23486 2.91077,3.02376 1.65855,1.77847 2.77963,3.13044 0.32679,0.38854 -0.27984,0.59347 z m 3.09409,2.6812 q -0.65102,0.21992 -1.3585,0.0847 -0.69267,-0.14021 -1.28931,-0.54674 -0.68843,-0.46906 -0.73159,-0.87546 -0.0284,-0.41139 0.65225,-0.64131 0.65103,-0.21992 1.3131,-0.10057 0.66158,0.10394 1.30411,0.54173 0.70372,0.47949 0.74739,0.90132 0.0284,0.41139 -0.63745,0.63631 z"
           style="font-style:normal;font-variant:normal;font-weight:normal;font-stretch:normal;font-size:10.58333302px;line-height:1.25;font-family:Pacifico;-inkscape-font-specification:Pacifico;letter-spacing:0px;word-spacing:0px;fill:#ff5555;fill-opacity:1;stroke:none;stroke-width:0.37971517"
           id="path4740"
           inkscape:connector-curvature="0" />
      </g>
    </g>
  </g>
</svg>
