<?xml version="1.0" encoding="UTF-8" standalone="no"?>
<!-- Created with Inkscape (http://www.inkscape.org/) -->

<svg
   xmlns:dc="http://purl.org/dc/elements/1.1/"
   xmlns:cc="http://creativecommons.org/ns#"
   xmlns:rdf="http://www.w3.org/1999/02/22-rdf-syntax-ns#"
   xmlns:svg="http://www.w3.org/2000/svg"
   xmlns="http://www.w3.org/2000/svg"
   xmlns:xlink="http://www.w3.org/1999/xlink"
   xmlns:sodipodi="http://sodipodi.sourceforge.net/DTD/sodipodi-0.dtd"
   xmlns:inkscape="http://www.inkscape.org/namespaces/inkscape"
   width="140.87392mm"
   height="152.05284mm"
   viewBox="0 0 140.87392 152.05284"
   version="1.1"
   id="svg8"
   inkscape:version="0.92.4 (5da689c313, 2019-01-14)"
   sodipodi:docname="logo.svg">
  <defs
     id="defs2">
    <linearGradient
       inkscape:collect="always"
       xlink:href="#linearGradient875-5"
       id="linearGradient877"
       x1="113.77084"
       y1="87.979164"
       x2="116.41666"
       y2="188.52083"
       gradientUnits="userSpaceOnUse"
       gradientTransform="translate(-47.624997,5.291667)" />
    <linearGradient
       inkscape:collect="always"
       id="linearGradient875-5">
      <stop
         style="stop-color:#3771c8;stop-opacity:1;"
         offset="0"
         id="stop871" />
      <stop
         style="stop-color:#003380;stop-opacity:1"
         offset="1"
         id="stop873" />
    </linearGradient>
  </defs>
  <sodipodi:namedview
     id="base"
     pagecolor="#ffffff"
     bordercolor="#666666"
     borderopacity="1.0"
     inkscape:pageopacity="0.0"
     inkscape:pageshadow="2"
     inkscape:zoom="0.9899495"
     inkscape:cx="483.53687"
     inkscape:cy="84.265078"
     inkscape:document-units="mm"
     inkscape:current-layer="layer2"
     showgrid="true"
     showguides="false"
     inkscape:window-width="2560"
     inkscape:window-height="1376"
     inkscape:window-x="0"
     inkscape:window-y="27"
     inkscape:window-maximized="1" />
  <metadata
     id="metadata5">
    <rdf:RDF>
      <cc:Work
         rdf:about="">
        <dc:format>image/svg+xml</dc:format>
        <dc:type
           rdf:resource="http://purl.org/dc/dcmitype/StillImage" />
        <dc:title />
      </cc:Work>
    </rdf:RDF>
  </metadata>
  <g
     inkscape:groupmode="layer"
     id="layer2"
     inkscape:label="Cookie"
     style="display:inline"
     transform="translate(-0.67146102,-79.873153)">
    <path
       style="fill:#aa4400;fill-opacity:1;stroke:#542100;stroke-width:0.26458332px;stroke-linecap:butt;stroke-linejoin:miter;stroke-opacity:0.96078431"
       d="m 83.014282,229.20977 3.550919,-1.34292 -1.620321,-1.44492 -2.722806,1.06908 z"
       id="path1707"
       inkscape:connector-curvature="0" />
    <path
       style="opacity:1;fill:#803300;fill-opacity:1;stroke:#552200;stroke-width:1.53826773;stroke-linecap:butt;stroke-miterlimit:4;stroke-dasharray:none;stroke-dashoffset:0;stroke-opacity:0.96078431;paint-order:normal"
       d="M 385.28125 428.99023 C 381.43396 428.80135 381.04368 430.58388 350.56836 433.0918 C 296.39006 437.55035 335.45397 429.05788 291.20703 443.79883 C 246.96008 458.5397 269.48602 438.52736 240.65039 460.26172 C 226.23257 471.12892 216.57179 453.86982 221.4707 476.92773 C 222.25615 480.62464 231.68467 488.35643 238.12695 505.18164 C 241.87651 514.97428 241.343 520.98163 241.75586 525.11133 C 242.16871 529.24099 245.52585 537.81528 245.875 539.13672 C 246.57331 541.77959 251.65623 542.17607 271.59766 550.76758 C 291.53907 559.35905 293.34908 561.65273 296.75977 562.63477 C 298.94975 563.2653 301.88277 563.36482 310.61719 564.23242 L 316.68359 556.50586 L 321.11523 565.36914 C 324.19094 565.72356 327.54681 566.12199 331.5293 566.62695 C 384.22394 573.30848 342.70976 572.63174 396.74805 568.61523 C 450.78633 564.59865 415.1093 572.36695 459.6875 557.21875 C 504.26578 542.07059 477.81686 555.3744 505.68555 533.19141 C 506.12832 532.83896 506.4789 532.58073 506.90234 532.24805 C 505.66187 530.17847 504.37305 527.92187 504.37305 527.92188 C 504.37305 527.92188 508.69774 527.94239 512.34375 528.10547 C 531.57916 513.98392 523.02112 526.29249 526.14258 503.26758 C 527.86155 490.5873 528.13264 489.63402 527.61133 487.60938 C 526.88282 484.78002 524.32136 476.39999 522.85938 473.0293 C 521.69706 470.3495 519.64801 472.3354 514.04297 467.24805 C 491.31119 446.61587 515.67639 463.64464 474.65234 447.46875 C 433.62826 431.29286 468.785 440.72111 416.3125 433.59375 C 393.35578 430.47555 388.27359 429.13714 385.28125 428.99023 z "
       transform="matrix(0.26458333,0,0,0.26458333,0.67146102,79.873153)"
       id="path4565" />
    <path
       style="display:inline;fill:none;stroke:#552200;stroke-width:0.40700001;stroke-linecap:butt;stroke-linejoin:miter;stroke-miterlimit:4;stroke-dasharray:none;stroke-opacity:0.96078431"
       d="m 138.26713,213.07329 1.33241,3.99602"
       id="path910-5"
       inkscape:connector-curvature="0" />
    <path
       style="display:inline;fill:none;stroke:#552200;stroke-width:0.40700001;stroke-linecap:butt;stroke-linejoin:miter;stroke-miterlimit:4;stroke-dasharray:none;stroke-opacity:0.96078431"
       d="m 128.81247,220.70718 1.33241,3.99602"
       id="path910-7"
       inkscape:connector-curvature="0" />
    <path
       style="display:inline;fill:none;stroke:#552200;stroke-width:0.40700001;stroke-linecap:butt;stroke-linejoin:miter;stroke-miterlimit:4;stroke-dasharray:none;stroke-opacity:0.96078431"
       d="m 113.49645,225.96314 1.39547,3.97444"
       id="path910-6"
       inkscape:connector-curvature="0" />
    <path
       style="display:inline;fill:none;stroke:#552200;stroke-width:0.40700001;stroke-linecap:butt;stroke-linejoin:miter;stroke-miterlimit:4;stroke-dasharray:none;stroke-opacity:0.96078431"
       d="m 95.574727,227.03514 1.332406,3.99602"
       id="path910-3"
       inkscape:connector-curvature="0" />
    <path
       style="fill:none;stroke:#552200;stroke-width:0.40700001;stroke-linecap:butt;stroke-linejoin:miter;stroke-miterlimit:4;stroke-dasharray:none;stroke-opacity:0.96078431"
       d="m 77.797394,224.63147 1.332406,3.99602"
       id="path910"
       inkscape:connector-curvature="0" />
    <path
       id="path4570"
       d="m 133.05016,216.83398 c -7.37359,5.86927 -0.37555,2.34902 -12.17021,6.35697 -11.79466,4.00796 -2.35543,1.9527 -16.65306,3.01541 -14.297629,1.06271 -3.31359,1.24186 -17.255717,-0.52597 -6.971065,-0.88392 -8.297199,-0.79643 -9.199608,-1.05625 -0.90241,-0.25983 -1.381095,-0.86697 -6.657262,-3.14013 -5.276165,-2.27316 -6.287022,-2.24404 -6.471783,-2.94329 -0.18476,-0.69925 0.456574,-2.12688 -1.515215,-7.31354 -3.943577,-10.37334 -6.962136,-6.13459 0.667293,-11.88513 7.629435,-5.75055 0.800828,-2.25992 12.507835,-6.16011 11.70701,-3.90021 1.37128,-1.65314 15.705958,-2.83281 14.334679,-1.17966 3.51182,-1.75268 17.395169,0.1331 13.88335,1.88577 4.58148,-0.60925 15.43576,3.67063 10.85428,4.27986 4.50668,0.6846 9.77052,6.87054 5.26383,6.18592 4.76233,1.18312 3.85269,7.89309 -0.90966,6.70997 1.96123,2.04823 -5.41237,7.91749 z"
       inkscape:transform-center-y="0.10097334"
       inkscape:transform-center-x="-0.16892164"
       style="opacity:1;fill:#a05a2c;fill-opacity:1;stroke:#d38d5f;stroke-width:0.40741792;stroke-linecap:butt;stroke-miterlimit:4;stroke-dasharray:none;stroke-dashoffset:0;stroke-opacity:0.96078431;paint-order:normal"
       inkscape:connector-curvature="0"
       sodipodi:nodetypes="sssssszcsssssscs" />
    <g
       id="g907"
       transform="matrix(0.99827961,0.00644083,-0.46195775,0.99874283,95.957805,-0.39005914)">
      <g
         style="fill:#ffaaaa"
         transform="matrix(1.1880615,0.06380968,0.02324446,1.190843,-60.285375,-64.192187)"
         id="g4601">
        <path
           inkscape:connector-curvature="0"
           id="path4576"
           style="font-style:normal;font-variant:normal;font-weight:normal;font-stretch:normal;font-size:10.58333302px;line-height:1.25;font-family:Pacifico;-inkscape-font-specification:Pacifico;letter-spacing:0px;word-spacing:0px;fill:#ffaaaa;fill-opacity:1;stroke:none;stroke-width:0.37971517"
           d="m 122.31348,223.8864 q 0.13015,-0.13752 0.27812,-0.1875 0.23673,-0.08 0.53868,0.005 0.302,0.0851 0.59268,0.28314 0.45895,0.31271 0.55828,0.60658 0.11413,0.28887 -0.14367,0.64101 -0.4446,0.58677 -1.57535,1.2338 -1.14603,0.63662 -2.49248,1.09146 -1.86429,0.62978 -3.55031,0.76276 -1.70129,0.12257 -3.08765,-0.1887 -1.37157,-0.31625 -2.33537,-0.97295 -1.31566,-0.89643 -1.41979,-1.79675 -0.10464,-0.91575 1.08027,-1.737 -1.13303,0.1177 -2.26433,-0.17059 -1.11652,-0.29326 -1.92734,-0.84572 -1.10149,-0.75051 -1.27708,-1.54873 -0.17609,-0.81365 0.50424,-1.51122 0.68034,-0.69758 2.04157,-1.15742 1.83469,-0.61978 3.57816,-0.36679 1.72817,0.24257 3.02853,1.12858 0.90261,0.615 1.14314,1.11063 0.24003,0.48022 -0.3518,0.68015 -0.4143,0.13995 -0.83461,0.0948 -0.4356,-0.0555 -0.81806,-0.31613 -0.26008,-0.1772 -0.4921,-0.41066 -0.43089,-0.36897 -0.61447,-0.49405 -0.55074,-0.37525 -1.2868,-0.46962 -0.75136,-0.1048 -1.6835,0.21009 -1.25765,0.42485 -1.4615,1.05502 -0.20385,0.63016 0.72936,1.26601 0.71902,0.48991 1.75552,0.62312 1.03599,0.11778 2.36914,-0.2858 0.34084,-0.0995 0.61166,-0.0507 0.27071,0.0488 0.59205,0.26775 1.00969,0.68796 0.13723,0.99827 -1.19742,0.43574 -1.68997,0.92951 -0.47772,0.4888 -0.34278,0.95774 0.13445,0.45352 0.70049,0.83919 0.94851,0.64628 2.29623,0.68993 1.33242,0.0332 3.19671,-0.59654 1.22807,-0.41485 2.29861,-1.07274 1.07006,-0.67331 1.61823,-1.29506 z" />
        <path
           inkscape:connector-curvature="0"
           id="path4578"
           style="font-style:normal;font-variant:normal;font-weight:normal;font-stretch:normal;font-size:10.58333302px;line-height:1.25;font-family:Pacifico;-inkscape-font-specification:Pacifico;letter-spacing:0px;word-spacing:0px;fill:#ffaaaa;fill-opacity:1;stroke:none;stroke-width:0.37971517"
           d="m 126.3878,225.4257 q -0.91736,0.30989 -2.15323,0.0258 -1.23588,-0.28413 -2.35267,-1.04507 -1.22387,-0.83389 -1.76262,-1.7589 -0.55404,-0.93544 -0.30931,-1.68855 0.24421,-0.76854 1.26513,-1.11342 0.32552,-0.10996 0.5667,-0.0512 0.24085,0.0434 0.6513,0.24773 0.24957,-0.14662 0.58988,-0.26158 0.725,-0.24492 1.26043,0.11991 0.32127,0.21889 1.30792,1.11734 1.41902,1.31368 2.10745,1.78275 0.22947,0.15635 0.47075,0.21517 0.25603,0.0538 0.43354,-0.006 0.28112,-0.095 0.31345,-0.48009 0.017,-0.39554 -0.14378,-1.19877 -0.0366,-0.2059 0.18532,-0.28087 0.19236,-0.065 0.47951,0.0251 0.30199,0.0851 0.62326,0.30398 0.61193,0.41695 0.66736,0.74124 0.1736,0.73653 0.0284,1.33128 -0.14516,0.59475 -0.78138,0.80968 -0.48826,0.16494 -1.23914,0.0756 -0.75134,-0.10478 -1.55512,-0.44133 0.51567,1.1355 -0.6532,1.53036 z m -1.01249,-1.23273 q 0.3255,-0.10996 0.22366,-0.48095 -0.10182,-0.37097 -0.6265,-0.86418 l -2.26747,-2.10289 q -0.6061,0.22037 -0.66453,0.72342 -0.0589,0.48765 0.39529,1.1138 0.45421,0.62615 1.31093,1.20988 0.47425,0.32313 0.88128,0.4195 0.42183,0.0914 0.74734,-0.0186 z" />
        <path
           inkscape:connector-curvature="0"
           id="path4580"
           style="font-style:normal;font-variant:normal;font-weight:normal;font-stretch:normal;font-size:10.58333302px;line-height:1.25;font-family:Pacifico;-inkscape-font-specification:Pacifico;letter-spacing:0px;word-spacing:0px;fill:#ffaaaa;fill-opacity:1;stroke:none;stroke-width:0.37971517"
           d="m 128.22151,218.94377 q 0.73529,0.5312 1.16364,0.82306 1.10149,0.75051 1.83233,1.14289 0.73035,0.37694 1.2572,0.47961 0.5264,0.0872 0.98507,-0.0677 0.23675,-0.08 0.40928,-0.29417 0.17251,-0.21421 0.19407,-0.47095 0.01,-0.15922 0.17254,-0.2142 0.17755,-0.06 0.49528,0.051 0.31731,0.0955 0.60797,0.29356 0.29067,0.19805 0.44763,0.42568 0.17177,0.22262 0.13344,0.42267 -0.11155,0.70813 -1.08809,1.03802 -1.4056,0.47483 -3.26522,-0.12873 -1.87489,-0.61396 -3.8331,-1.94819 -0.67313,-0.45865 -1.31711,-0.94273 l -0.57704,0.19493 q -0.44388,0.14994 -0.7749,0.0903 -0.31625,-0.0647 -0.68342,-0.31485 -0.85671,-0.58373 -0.1909,-0.80865 l 0.84337,-0.2849 q -1.43128,-1.23157 -2.30558,-2.35507 -0.87431,-1.12349 -0.97541,-1.93129 -0.0863,-0.81278 0.75704,-1.09768 0.62143,-0.20993 1.54257,0.0558 0.92116,0.26572 1.77786,0.84944 2.37126,1.61568 2.20711,3.46417 l 1.65714,-0.55981 q 0.23675,-0.08 0.44743,-0.042 0.21071,0.038 0.50134,0.23601 1.0556,0.71923 -0.61634,1.28403 z m -4.64279,-4.76182 q -0.22194,0.075 0.0783,0.56604 0.29971,0.47564 1.07316,1.259 0.77297,0.76793 1.84938,1.66723 0.0928,-0.82651 -0.44197,-1.62815 -0.53521,-0.81706 -1.33073,-1.35909 -0.90261,-0.615 -1.22813,-0.50503 z" />
        <path
           inkscape:connector-curvature="0"
           id="path4582"
           style="font-style:normal;font-variant:normal;font-weight:normal;font-stretch:normal;font-size:10.58333302px;line-height:1.25;font-family:Pacifico;-inkscape-font-specification:Pacifico;letter-spacing:0px;word-spacing:0px;fill:#ffaaaa;fill-opacity:1;stroke:none;stroke-width:0.37971517"
           d="m 139.87032,229.67833 q -0.56224,0.18993 -1.41093,-0.14705 -0.83388,-0.34197 -2.18013,-1.25925 -1.98881,-1.35508 -3.23127,-2.75959 -0.31055,-0.34724 -0.21346,-0.58274 0.0966,-0.25089 0.64401,-0.43583 0.29591,-0.1 0.49075,-0.0879 0.19488,0.0121 0.40909,0.15806 0.24477,0.16677 0.87955,0.82548 0.46396,0.46693 0.83414,0.80963 0.35488,0.33228 0.96883,0.8109 -0.79379,-0.948 -1.07246,-1.69581 -0.26386,-0.75281 -0.0846,-1.21875 0.17877,-0.48137 0.69664,-0.65631 0.51786,-0.17494 0.96977,-0.0781 0.4667,0.0918 0.97155,0.43579 0.48956,0.33356 1.49351,1.30411 0.43233,0.41526 0.66336,0.61786 -1.14191,-1.53202 -1.09608,-2.42065 0.0459,-0.88861 0.83004,-1.15351 0.96174,-0.32489 1.95613,0.35264 0.59664,0.40652 1.83157,1.5797 1.04984,1.00183 1.4782,1.2937 0.61193,0.41694 1.04102,0.27199 0.29593,-0.1 0.32825,-0.48508 0.0318,-0.40054 -0.12898,-1.20377 -0.0366,-0.2059 0.18532,-0.28088 0.19236,-0.065 0.4795,0.0251 0.302,0.0851 0.62327,0.30398 0.61193,0.41695 0.66736,0.74123 0.1746,0.76739 -0.0451,1.3717 -0.20484,0.59933 -1.13699,0.91421 -0.75459,0.25491 -1.58295,0.0826 -0.84364,-0.18276 -1.70036,-0.76649 -0.42835,-0.29186 -1.3227,-1.11234 -0.77145,-0.72167 -1.13861,-0.97184 -0.24477,-0.16677 -0.40753,-0.11179 -0.19235,0.065 -0.0273,0.53933 0.14975,0.46394 0.63606,1.1572 0.48632,0.69327 1.19758,1.40408 0.57156,0.55532 0.59439,0.79707 0.0376,0.23676 -0.43582,0.39671 -0.48827,0.16494 -1.21407,-0.0732 -0.72627,-0.25358 -1.4147,-0.72265 -0.58134,-0.3961 -1.53488,-1.19659 -0.86068,-0.70711 -1.16665,-0.91559 -0.24477,-0.16678 -0.40753,-0.11179 -0.22194,0.075 -0.0115,0.56518 0.21045,0.49021 0.74163,1.1839 0.546,0.68869 1.17977,1.31654 0.55628,0.5449 0.5944,0.79707 0.0376,0.23676 -0.42103,0.39171 z" />
        <path
           inkscape:connector-curvature="0"
           id="path4584"
           style="font-style:normal;font-variant:normal;font-weight:normal;font-stretch:normal;font-size:10.58333302px;line-height:1.25;font-family:Pacifico;-inkscape-font-specification:Pacifico;letter-spacing:0px;word-spacing:0px;fill:#ffaaaa;fill-opacity:1;stroke:none;stroke-width:0.37971517"
           d="m 152.09795,222.46055 q 0.19234,-0.065 0.47949,0.0251 0.302,0.0851 0.62327,0.30398 0.55074,0.37526 0.69695,0.73124 0.24356,0.58817 -0.0699,1.06826 -0.29866,0.47509 -1.2308,0.78997 -1.42042,0.47984 -3.07662,0.15059 -1.67151,-0.33967 -3.17075,-1.36118 -1.05559,-0.71924 -1.52912,-1.47919 -0.48881,-0.77037 -0.26967,-1.39011 0.23395,-0.62473 1.19569,-0.94962 0.85816,-0.2899 1.91146,-0.10001 1.03801,0.17947 1.94061,0.79446 1.05559,0.71924 1.08073,1.49034 0.0246,0.75567 -1.29245,1.65275 1.05883,0.35953 1.9022,0.0746 0.60663,-0.20493 0.70066,-0.53293 0.10883,-0.333 -0.0617,-0.97701 -0.0519,-0.21633 0.17001,-0.2913 z m -5.10378,-1.00444 q -0.54744,0.18493 -0.2743,0.76312 0.28793,0.57317 1.22113,1.20901 l 0.0307,0.0209 q 0.65877,-0.44083 0.73349,-0.90263 0.0747,-0.4618 -0.49135,-0.84749 -0.29066,-0.19804 -0.62171,-0.25772 -0.33154,-0.0751 -0.59787,0.0149 z" />
        <path
           inkscape:connector-curvature="0"
           id="path4586"
           style="font-style:normal;font-variant:normal;font-weight:normal;font-stretch:normal;font-size:10.58333302px;line-height:1.25;font-family:Pacifico;-inkscape-font-specification:Pacifico;letter-spacing:0px;word-spacing:0px;fill:#ffaaaa;fill-opacity:1;stroke:none;stroke-width:0.37971517"
           d="m 154.56422,220.98815 q -0.29591,0.1 -0.62588,0.0712 -0.32996,-0.0288 -0.6207,-0.22688 l -0.10761,-0.0884 q -1.46189,-1.25242 -3.22048,-2.88796 -1.75861,-1.63554 -2.97973,-2.84455 -0.74238,-0.7471 0.30814,-1.10197 0.94693,-0.31989 1.57418,0.10748 0.13775,0.0939 0.26151,0.2235 1.23693,1.23486 2.91077,3.02376 1.65855,1.77847 2.77963,3.13044 0.32679,0.38854 -0.27984,0.59347 z m 3.09409,2.6812 q -0.65102,0.21992 -1.3585,0.0847 -0.69267,-0.14021 -1.28931,-0.54674 -0.68843,-0.46906 -0.73159,-0.87546 -0.0284,-0.41139 0.65225,-0.64131 0.65103,-0.21992 1.3131,-0.10057 0.66158,0.10394 1.30411,0.54173 0.70372,0.47949 0.74739,0.90132 0.0284,0.41139 -0.63745,0.63631 z" />
      </g>
      <g
         style="fill:#ff5555"
         id="g4742"
         transform="matrix(1.1880615,0.06380968,0.02324446,1.190843,-60.791075,-65.055466)">
        <path
           d="m 122.31348,223.8864 q 0.13015,-0.13752 0.27812,-0.1875 0.23673,-0.08 0.53868,0.005 0.302,0.0851 0.59268,0.28314 0.45895,0.31271 0.55828,0.60658 0.11413,0.28887 -0.14367,0.64101 -0.4446,0.58677 -1.57535,1.2338 -1.14603,0.63662 -2.49248,1.09146 -1.86429,0.62978 -3.55031,0.76276 -1.70129,0.12257 -3.08765,-0.1887 -1.37157,-0.31625 -2.33537,-0.97295 -1.31566,-0.89643 -1.41979,-1.79675 -0.10464,-0.91575 1.08027,-1.737 -1.13303,0.1177 -2.26433,-0.17059 -1.11652,-0.29326 -1.92734,-0.84572 -1.10149,-0.75051 -1.27708,-1.54873 -0.17609,-0.81365 0.50424,-1.51122 0.68034,-0.69758 2.04157,-1.15742 1.83469,-0.61978 3.57816,-0.36679 1.72817,0.24257 3.02853,1.12858 0.90261,0.615 1.14314,1.11063 0.24003,0.48022 -0.3518,0.68015 -0.4143,0.13995 -0.83461,0.0948 -0.4356,-0.0555 -0.81806,-0.31613 -0.26008,-0.1772 -0.4921,-0.41066 -0.43089,-0.36897 -0.61447,-0.49405 -0.55074,-0.37525 -1.2868,-0.46962 -0.75136,-0.1048 -1.6835,0.21009 -1.25765,0.42485 -1.4615,1.05502 -0.20385,0.63016 0.72936,1.26601 0.71902,0.48991 1.75552,0.62312 1.03599,0.11778 2.36914,-0.2858 0.34084,-0.0995 0.61166,-0.0507 0.27071,0.0488 0.59205,0.26775 1.00969,0.68796 0.13723,0.99827 -1.19742,0.43574 -1.68997,0.92951 -0.47772,0.4888 -0.34278,0.95774 0.13445,0.45352 0.70049,0.83919 0.94851,0.64628 2.29623,0.68993 1.33242,0.0332 3.19671,-0.59654 1.22807,-0.41485 2.29861,-1.07274 1.07006,-0.67331 1.61823,-1.29506 z"
           style="font-style:normal;font-variant:normal;font-weight:normal;font-stretch:normal;font-size:10.58333302px;line-height:1.25;font-family:Pacifico;-inkscape-font-specification:Pacifico;letter-spacing:0px;word-spacing:0px;fill:#ff5555;fill-opacity:1;stroke:none;stroke-width:0.37971517"
           id="path4730"
           inkscape:connector-curvature="0" />
        <path
           d="m 126.3878,225.4257 q -0.91736,0.30989 -2.15323,0.0258 -1.23588,-0.28413 -2.35267,-1.04507 -1.22387,-0.83389 -1.76262,-1.7589 -0.55404,-0.93544 -0.30931,-1.68855 0.24421,-0.76854 1.26513,-1.11342 0.32552,-0.10996 0.5667,-0.0512 0.24085,0.0434 0.6513,0.24773 0.24957,-0.14662 0.58988,-0.26158 0.725,-0.24492 1.26043,0.11991 0.32127,0.21889 1.30792,1.11734 1.41902,1.31368 2.10745,1.78275 0.22947,0.15635 0.47075,0.21517 0.25603,0.0538 0.43354,-0.006 0.28112,-0.095 0.31345,-0.48009 0.017,-0.39554 -0.14378,-1.19877 -0.0366,-0.2059 0.18532,-0.28087 0.19236,-0.065 0.47951,0.0251 0.30199,0.0851 0.62326,0.30398 0.61193,0.41695 0.66736,0.74124 0.1736,0.73653 0.0284,1.33128 -0.14516,0.59475 -0.78138,0.80968 -0.48826,0.16494 -1.23914,0.0756 -0.75134,-0.10478 -1.55512,-0.44133 0.51567,1.1355 -0.6532,1.53036 z m -1.01249,-1.23273 q 0.3255,-0.10996 0.22366,-0.48095 -0.10182,-0.37097 -0.6265,-0.86418 l -2.26747,-2.10289 q -0.6061,0.22037 -0.66453,0.72342 -0.0589,0.48765 0.39529,1.1138 0.45421,0.62615 1.31093,1.20988 0.47425,0.32313 0.88128,0.4195 0.42183,0.0914 0.74734,-0.0186 z"
           style="font-style:normal;font-variant:normal;font-weight:normal;font-stretch:normal;font-size:10.58333302px;line-height:1.25;font-family:Pacifico;-inkscape-font-specification:Pacifico;letter-spacing:0px;word-spacing:0px;fill:#ff5555;fill-opacity:1;stroke:none;stroke-width:0.37971517"
           id="path4732"
           inkscape:connector-curvature="0" />
        <path
           d="m 128.22151,218.94377 q 0.73529,0.5312 1.16364,0.82306 1.10149,0.75051 1.83233,1.14289 0.73035,0.37694 1.2572,0.47961 0.5264,0.0872 0.98507,-0.0677 0.23675,-0.08 0.40928,-0.29417 0.17251,-0.21421 0.19407,-0.47095 0.01,-0.15922 0.17254,-0.2142 0.17755,-0.06 0.49528,0.051 0.31731,0.0955 0.60797,0.29356 0.29067,0.19805 0.44763,0.42568 0.17177,0.22262 0.13344,0.42267 -0.11155,0.70813 -1.08809,1.03802 -1.4056,0.47483 -3.26522,-0.12873 -1.87489,-0.61396 -3.8331,-1.94819 -0.67313,-0.45865 -1.31711,-0.94273 l -0.57704,0.19493 q -0.44388,0.14994 -0.7749,0.0903 -0.31625,-0.0647 -0.68342,-0.31485 -0.85671,-0.58373 -0.1909,-0.80865 l 0.84337,-0.2849 q -1.43128,-1.23157 -2.30558,-2.35507 -0.87431,-1.12349 -0.97541,-1.93129 -0.0863,-0.81278 0.75704,-1.09768 0.62143,-0.20993 1.54257,0.0558 0.92116,0.26572 1.77786,0.84944 2.37126,1.61568 2.20711,3.46417 l 1.65714,-0.55981 q 0.23675,-0.08 0.44743,-0.042 0.21071,0.038 0.50134,0.23601 1.0556,0.71923 -0.61634,1.28403 z m -4.64279,-4.76182 q -0.22194,0.075 0.0783,0.56604 0.29971,0.47564 1.07316,1.259 0.77297,0.76793 1.84938,1.66723 0.0928,-0.82651 -0.44197,-1.62815 -0.53521,-0.81706 -1.33073,-1.35909 -0.90261,-0.615 -1.22813,-0.50503 z"
           style="font-style:normal;font-variant:normal;font-weight:normal;font-stretch:normal;font-size:10.58333302px;line-height:1.25;font-family:Pacifico;-inkscape-font-specification:Pacifico;letter-spacing:0px;word-spacing:0px;fill:#ff5555;fill-opacity:1;stroke:none;stroke-width:0.37971517"
           id="path4734"
           inkscape:connector-curvature="0" />
        <path
           d="m 139.87032,229.67833 q -0.56224,0.18993 -1.41093,-0.14705 -0.83388,-0.34197 -2.18013,-1.25925 -1.98881,-1.35508 -3.23127,-2.75959 -0.31055,-0.34724 -0.21346,-0.58274 0.0966,-0.25089 0.64401,-0.43583 0.29591,-0.1 0.49075,-0.0879 0.19488,0.0121 0.40909,0.15806 0.24477,0.16677 0.87955,0.82548 0.46396,0.46693 0.83414,0.80963 0.35488,0.33228 0.96883,0.8109 -0.79379,-0.948 -1.07246,-1.69581 -0.26386,-0.75281 -0.0846,-1.21875 0.17877,-0.48137 0.69664,-0.65631 0.51786,-0.17494 0.96977,-0.0781 0.4667,0.0918 0.97155,0.43579 0.48956,0.33356 1.49351,1.30411 0.43233,0.41526 0.66336,0.61786 -1.14191,-1.53202 -1.09608,-2.42065 0.0459,-0.88861 0.83004,-1.15351 0.96174,-0.32489 1.95613,0.35264 0.59664,0.40652 1.83157,1.5797 1.04984,1.00183 1.4782,1.2937 0.61193,0.41694 1.04102,0.27199 0.29593,-0.1 0.32825,-0.48508 0.0318,-0.40054 -0.12898,-1.20377 -0.0366,-0.2059 0.18532,-0.28088 0.19236,-0.065 0.4795,0.0251 0.302,0.0851 0.62327,0.30398 0.61193,0.41695 0.66736,0.74123 0.1746,0.76739 -0.0451,1.3717 -0.20484,0.59933 -1.13699,0.91421 -0.75459,0.25491 -1.58295,0.0826 -0.84364,-0.18276 -1.70036,-0.76649 -0.42835,-0.29186 -1.3227,-1.11234 -0.77145,-0.72167 -1.13861,-0.97184 -0.24477,-0.16677 -0.40753,-0.11179 -0.19235,0.065 -0.0273,0.53933 0.14975,0.46394 0.63606,1.1572 0.48632,0.69327 1.19758,1.40408 0.57156,0.55532 0.59439,0.79707 0.0376,0.23676 -0.43582,0.39671 -0.48827,0.16494 -1.21407,-0.0732 -0.72627,-0.25358 -1.4147,-0.72265 -0.58134,-0.3961 -1.53488,-1.19659 -0.86068,-0.70711 -1.16665,-0.91559 -0.24477,-0.16678 -0.40753,-0.11179 -0.22194,0.075 -0.0115,0.56518 0.21045,0.49021 0.74163,1.1839 0.546,0.68869 1.17977,1.31654 0.55628,0.5449 0.5944,0.79707 0.0376,0.23676 -0.42103,0.39171 z"
           style="font-style:normal;font-variant:normal;font-weight:normal;font-stretch:normal;font-size:10.58333302px;line-height:1.25;font-family:Pacifico;-inkscape-font-specification:Pacifico;letter-spacing:0px;word-spacing:0px;fill:#ff5555;fill-opacity:1;stroke:none;stroke-width:0.37971517"
           id="path4736"
           inkscape:connector-curvature="0" />
        <path
           d="m 152.09795,222.46055 q 0.19234,-0.065 0.47949,0.0251 0.302,0.0851 0.62327,0.30398 0.55074,0.37526 0.69695,0.73124 0.24356,0.58817 -0.0699,1.06826 -0.29866,0.47509 -1.2308,0.78997 -1.42042,0.47984 -3.07662,0.15059 -1.67151,-0.33967 -3.17075,-1.36118 -1.05559,-0.71924 -1.52912,-1.47919 -0.48881,-0.77037 -0.26967,-1.39011 0.23395,-0.62473 1.19569,-0.94962 0.85816,-0.2899 1.91146,-0.10001 1.03801,0.17947 1.94061,0.79446 1.05559,0.71924 1.08073,1.49034 0.0246,0.75567 -1.29245,1.65275 1.05883,0.35953 1.9022,0.0746 0.60663,-0.20493 0.70066,-0.53293 0.10883,-0.333 -0.0617,-0.97701 -0.0519,-0.21633 0.17001,-0.2913 z m -5.10378,-1.00444 q -0.54744,0.18493 -0.2743,0.76312 0.28793,0.57317 1.22113,1.20901 l 0.0307,0.0209 q 0.65877,-0.44083 0.73349,-0.90263 0.0747,-0.4618 -0.49135,-0.84749 -0.29066,-0.19804 -0.62171,-0.25772 -0.33154,-0.0751 -0.59787,0.0149 z"
           style="font-style:normal;font-variant:normal;font-weight:normal;font-stretch:normal;font-size:10.58333302px;line-height:1.25;font-family:Pacifico;-inkscape-font-specification:Pacifico;letter-spacing:0px;word-spacing:0px;fill:#ff5555;fill-opacity:1;stroke:none;stroke-width:0.37971517"
           id="path4738"
           inkscape:connector-curvature="0" />
        <path
           d="m 154.56422,220.98815 q -0.29591,0.1 -0.62588,0.0712 -0.32996,-0.0288 -0.6207,-0.22688 l -0.10761,-0.0884 q -1.46189,-1.25242 -3.22048,-2.88796 -1.75861,-1.63554 -2.97973,-2.84455 -0.74238,-0.7471 0.30814,-1.10197 0.94693,-0.31989 1.57418,0.10748 0.13775,0.0939 0.26151,0.2235 1.23693,1.23486 2.91077,3.02376 1.65855,1.77847 2.77963,3.13044 0.32679,0.38854 -0.27984,0.59347 z m 3.09409,2.6812 q -0.65102,0.21992 -1.3585,0.0847 -0.69267,-0.14021 -1.28931,-0.54674 -0.68843,-0.46906 -0.73159,-0.87546 -0.0284,-0.41139 0.65225,-0.64131 0.65103,-0.21992 1.3131,-0.10057 0.66158,0.10394 1.30411,0.54173 0.70372,0.47949 0.74739,0.90132 0.0284,0.41139 -0.63745,0.63631 z"
           style="font-style:normal;font-variant:normal;font-weight:normal;font-stretch:normal;font-size:10.58333302px;line-height:1.25;font-family:Pacifico;-inkscape-font-specification:Pacifico;letter-spacing:0px;word-spacing:0px;fill:#ff5555;fill-opacity:1;stroke:none;stroke-width:0.37971517"
           id="path4740"
           inkscape:connector-curvature="0" />
      </g>
    </g>
    <text
       xml:space="preserve"
       style="font-style:normal;font-variant:normal;font-weight:normal;font-stretch:normal;font-size:10.58333302px;line-height:1.25;font-family:'Open Sans';-inkscape-font-specification:'Open Sans';letter-spacing:0px;word-spacing:0px;display:inline;fill:#000000;fill-opacity:1;stroke:none;stroke-width:0.26458332"
       x="52.913982"
       y="16.471746"
       id="text1047" />
    <g
       style="display:inline"
       id="g1026"
       transform="translate(-30.671615,13.159291)">
      <path
         inkscape:transform-center-x="1.1880952e-06"
         sodipodi:nodetypes="sscsscs"
         inkscape:connector-curvature="0"
         id="path843"
         d="m 103.1875,114.4375 c 0,4.23374 -22.037327,80.69347 -25.703857,82.81034 -3.66654,2.11688 -15.99118,2.11688 -19.65771,0 -3.66653,-2.11687 -25.703857,-78.5766 -25.703857,-82.81034 0,-4.23375 16.745658,-24.072643 20.412187,-26.189517 3.66653,-2.116873 26.57451,-2.116873 30.24105,0 3.66653,2.116874 20.412187,21.955767 20.412187,26.189517 z"
         style="fill:#aaeeff;fill-opacity:1;stroke:#2ad4ff;stroke-width:1.55799997;stroke-linecap:butt;stroke-miterlimit:4;stroke-dasharray:none;stroke-dashoffset:0;stroke-opacity:0.96078431;paint-order:stroke markers fill" />
      <path
         sodipodi:nodetypes="cccc"
         inkscape:connector-curvature="0"
         style="fill:none;fill-opacity:1;stroke:#d35f5f;stroke-width:0.80000001;stroke-linecap:butt;stroke-miterlimit:4;stroke-dasharray:none;stroke-dashoffset:0;stroke-opacity:0.96078431;paint-order:stroke markers fill"
         d="m 82.814583,95.652087 c 1.42428,0.570341 6.89301,2.58251 8.12973,3.18637 1.23673,0.60386 2.37203,1.220123 3.39101,1.839163 0.14593,0.0887 0.24439,0.17738 0.38551,0.26613"
         id="path921" />
      <path
         style="fill:none;fill-opacity:1;stroke:#2ad4ff;stroke-width:0.89999998;stroke-linecap:butt;stroke-miterlimit:4;stroke-dasharray:none;stroke-dashoffset:0;stroke-opacity:0.96078431;paint-order:normal"
         d="m 103.1875,114.4375 c 0,4.23374 -22.037327,80.69347 -25.703857,82.81034 -3.66654,2.11688 -15.99118,2.11688 -19.65771,0 -3.66653,-2.11687 -25.703857,-78.5766 -25.703857,-82.81034 0,-4.23375 16.745658,-24.072643 20.412187,-26.189517 3.66653,-2.116873 26.57451,-2.116873 30.24105,0 3.66653,2.116874 20.412187,21.955767 20.412187,26.189517 z"
         id="path957"
         inkscape:connector-curvature="0"
         sodipodi:nodetypes="sscsscs"
         inkscape:transform-center-x="1.1880952e-06" />
      <path
         style="fill:url(#linearGradient877);fill-opacity:1;stroke:#003380;stroke-width:1.32599998;stroke-linecap:butt;stroke-miterlimit:4;stroke-dasharray:none;stroke-dashoffset:0;stroke-opacity:0.96078431;paint-order:stroke markers fill"
         d="m 97.895833,116.00774 c 0,3.60324 -18.75544,76.08463 -21.87594,77.88624 -3.1205,1.80163 -13.60971,1.80163 -16.73021,0 -3.1205,-1.80161 -21.87594,-74.283 -21.87594,-77.88624 0,-3.60324 14.251831,-20.487634 17.37233,-22.289255 3.12049,-1.80162 22.61693,-1.80162 25.73743,0 3.1205,1.801621 17.37233,18.686015 17.37233,22.289255 z"
         id="path850"
         inkscape:connector-curvature="0"
         sodipodi:nodetypes="sscsscs"
         inkscape:transform-center-x="2.6880952e-06" />
      <path
         inkscape:transform-center-x="2.6880952e-06"
         sodipodi:nodetypes="sccsscs"
         inkscape:connector-curvature="0"
         id="path892"
         d="m 97.895833,116.00774 c 0,3.60324 -13.18968,7.56727 -13.18968,7.56727 l -34.035912,0.0668 c 0,0 -13.256498,-4.03084 -13.256498,-7.63408 0,-3.60324 14.251831,-20.487634 17.37233,-22.289255 3.12049,-1.80162 22.61693,-1.80162 25.73743,0 3.1205,1.801621 17.37233,18.686015 17.37233,22.289255 z"
         style="fill:#2ad4ff;fill-opacity:1;stroke:#003380;stroke-width:1.32599998;stroke-linecap:butt;stroke-miterlimit:4;stroke-dasharray:none;stroke-dashoffset:0;stroke-opacity:0.96078431;paint-order:stroke markers fill" />
      <path
         sodipodi:nodetypes="cscsssc"
         inkscape:connector-curvature="0"
         id="path881"
         d="m 78.18231,162.06246 c 3.205917,-20.64066 6.484358,-36.49563 6.484358,-38.50419 0,-3.60324 -8.017121,-28.03834 -9.77253,-29.83996 -0.877711,-0.900811 -4.058603,-1.350822 -7.239352,-1.350822 -3.180747,0 -6.361645,0.450011 -7.239349,1.350822 -1.75541,1.80162 -9.772531,26.23672 -9.772531,29.83996 0,2.00856 3.278441,17.86353 6.484358,38.50419"
         style="fill:none;fill-opacity:1;stroke:#003380;stroke-width:0.62599999;stroke-linecap:butt;stroke-miterlimit:4;stroke-dasharray:none;stroke-dashoffset:0;stroke-opacity:0.96078431;paint-order:stroke markers fill" />
      <path
         inkscape:connector-curvature="0"
         id="path894"
         d="m 79.017401,95.427767 c -1.561716,0.01882 -1.964613,0.986441 -1.252638,2.080493 0.33777,0.739381 0.736542,1.713161 1.172023,2.84737 0.870979,2.26841 1.888323,5.17842 2.858222,8.13749 0.618855,1.88811 1.210543,3.78109 1.739947,5.55522 L 93.7457,109.49512 C 89.863675,104.07143 83.693121,97.120434 81.869422,96.067519 80.676511,95.607041 79.727271,95.419213 79.017401,95.427767 Z m 17.458883,18.393713 -11.572422,5.1604 c 0.100788,0.40767 0.200337,0.81151 0.276471,1.15911 0.194228,0.88671 0.30334,1.56357 0.30334,1.95646 0,0.002 -0.0021,0.0127 -0.0021,0.0145 h 0.03617 c 0,0 11.506274,-3.45796 11.506274,-6.60114 0,-0.39574 -0.197816,-0.97565 -0.54777,-1.6893 z"
         style="fill:#d5f6ff;fill-opacity:0.94554455;stroke:none;stroke-width:1.15669382;stroke-linecap:butt;stroke-miterlimit:4;stroke-dasharray:none;stroke-dashoffset:0;stroke-opacity:0.96078431;paint-order:stroke markers fill" />
      <path
         sodipodi:nodetypes="csccscc"
         inkscape:connector-curvature="0"
         id="ellipse916"
         d="m 85.611613,89.869048 c 0,3.172458 -8.14399,5.744243 -18.19011,5.744243 -10.04612,0 -18.190108,-2.571786 -18.190108,-5.744243 v -8.56265 c 0,-3.172458 8.143988,-4.156743 18.190108,-4.156743 10.04612,-10e-7 18.19011,0.984284 18.19011,4.156743 z"
         style="fill:#aaeeff;fill-opacity:1;stroke:#2ad4ff;stroke-width:1.55799997;stroke-linecap:butt;stroke-miterlimit:4;stroke-dasharray:none;stroke-dashoffset:0;stroke-opacity:0.96078431;paint-order:stroke markers fill" />
      <path
         inkscape:connector-curvature="0"
         id="path914"
         d="m 85.611613,81.306397 a 18.190102,5.7442429 0 0 1 -18.19011,5.744243 18.190102,5.7442429 0 0 1 -18.190108,-5.744243 18.190102,5.7442429 0 0 1 18.190108,-5.744243 18.190102,5.7442429 0 0 1 18.19011,5.744243 z"
         style="fill:#aaeeff;fill-opacity:1;stroke:#2ad4ff;stroke-width:1.55799997;stroke-linecap:butt;stroke-miterlimit:4;stroke-dasharray:none;stroke-dashoffset:0;stroke-opacity:0.96078431;paint-order:stroke markers fill" />
      <path
         style="fill:#a05a2c;fill-opacity:0.94554455;stroke:#552200;stroke-width:1.55799997;stroke-linecap:butt;stroke-miterlimit:4;stroke-dasharray:none;stroke-dashoffset:0;stroke-opacity:1;paint-order:stroke markers fill"
         d="m 81.098273,80.896095 c -0.95738,1.914748 -6.12331,4.318979 -13.67677,4.318978 -7.55347,0 -12.17233,-2.40423 -13.67677,-4.318978 l -4.513338,-7.65899 c 0,-2.385306 10.636638,-1.90446 18.190108,-1.90446 7.55346,0 18.19011,-0.480846 18.19011,1.90446 z"
         id="path950"
         inkscape:connector-curvature="0"
         sodipodi:nodetypes="csccscc" />
      <path
         sodipodi:nodetypes="sssss"
         inkscape:connector-curvature="0"
         style="opacity:1;fill:#d38d5f;fill-opacity:0.94554455;stroke:#552200;stroke-width:1.55799997;stroke-linecap:butt;stroke-miterlimit:4;stroke-dasharray:none;stroke-dashoffset:0;stroke-opacity:1;paint-order:stroke markers fill"
         d="m 85.611613,73.237105 c 0,3.172458 -8.14399,5.744243 -18.19011,5.744243 -10.04612,0 -18.190108,-2.571785 -18.190108,-5.744243 0,-3.172458 8.143988,-5.744243 18.190108,-5.744243 10.04612,-10e-7 18.19011,2.571785 18.19011,5.744243 z"
         id="path952" />
      <path
         sodipodi:nodetypes="cccccccccccccc"
         inkscape:connector-curvature="0"
         id="path987"
         d="m 53.445843,86.095188 v 7.220786 c 2.5752,0.958954 6.43003,1.628548 10.84791,1.806943 v -7.219524 c -0.30965,-0.01072 -0.61817,-0.0239 -0.92519,-0.03954 -0.54152,-0.03099 -1.07721,-0.0696 -1.60506,-0.115693 -0.52784,-0.04608 -1.04718,-0.09957 -1.55608,-0.160289 -0.50889,-0.06068 -1.00671,-0.128495 -1.49159,-0.203202 -0.48498,-0.07478 -0.9564,-0.156361 -1.41249,-0.244433 -0.45605,-0.08811 -0.8962,-0.182611 -1.31879,-0.283136 -0.42253,-0.100394 -0.827,-0.206686 -1.21191,-0.318478 -0.38512,-0.111877 -0.75015,-0.229121 -1.09375,-0.351291 -0.079,-0.03044 -0.15669,-0.06116 -0.23305,-0.09213 z"
         style="fill:#d5f6ff;fill-opacity:0.94509804;stroke:none;stroke-width:1.34182966;stroke-linecap:butt;stroke-miterlimit:4;stroke-dasharray:none;stroke-dashoffset:0;stroke-opacity:0.96078431;paint-order:stroke markers fill" />
      <path
         id="path989"
         d="m 62.177083,73.162499 c 0,0.495673 -1.27244,0.897495 -2.84207,0.897495 -1.56963,0 -2.84206,-0.401822 -2.84206,-0.897495 0,-0.495672 1.27243,-0.897494 2.84206,-0.897494 1.56963,0 2.84207,0.401822 2.84207,0.897494 z"
         style="opacity:1;fill:#552200;fill-opacity:1;stroke:none;stroke-width:0.24333514;stroke-linecap:butt;stroke-miterlimit:4;stroke-dasharray:none;stroke-dashoffset:0;stroke-opacity:1;paint-order:stroke markers fill"
         inkscape:connector-curvature="0"
         sodipodi:nodetypes="sssss" />
      <path
         sodipodi:nodetypes="sssss"
         inkscape:connector-curvature="0"
         style="opacity:1;fill:#784421;fill-opacity:0.94554455;stroke:none;stroke-width:0.24333514;stroke-linecap:butt;stroke-miterlimit:4;stroke-dasharray:none;stroke-dashoffset:0;stroke-opacity:1;paint-order:stroke markers fill"
         d="m 62.824063,73.162499 c 0,0.495673 -1.27244,0.897495 -2.84207,0.897495 -1.56963,0 -2.84206,-0.401822 -2.84206,-0.897495 0,-0.495672 1.27243,-0.897494 2.84206,-0.897494 1.56963,0 2.84207,0.401822 2.84207,0.897494 z"
         id="path991" />
      <path
         id="path989-6"
         d="m 72.760423,75.808333 c 0,0.495673 -1.27244,0.897495 -2.84207,0.897495 -1.56963,0 -2.84206,-0.401822 -2.84206,-0.897495 0,-0.495672 1.27243,-0.897494 2.84206,-0.897494 1.56963,0 2.84207,0.401822 2.84207,0.897494 z"
         style="opacity:1;fill:#552200;fill-opacity:1;stroke:none;stroke-width:0.24333514;stroke-linecap:butt;stroke-miterlimit:4;stroke-dasharray:none;stroke-dashoffset:0;stroke-opacity:1;paint-order:stroke markers fill"
         inkscape:connector-curvature="0"
         sodipodi:nodetypes="sssss" />
      <path
         sodipodi:nodetypes="sssss"
         inkscape:connector-curvature="0"
         style="opacity:1;fill:#784421;fill-opacity:0.94554455;stroke:none;stroke-width:0.24333514;stroke-linecap:butt;stroke-miterlimit:4;stroke-dasharray:none;stroke-dashoffset:0;stroke-opacity:1;paint-order:stroke markers fill"
         d="m 73.407403,75.808333 c 0,0.495673 -1.27244,0.897495 -2.84207,0.897495 -1.56963,0 -2.84206,-0.401822 -2.84206,-0.897495 0,-0.495672 1.27243,-0.897494 2.84206,-0.897494 1.56963,0 2.84207,0.401822 2.84207,0.897494 z"
         id="path991-7" />
      <path
         id="path989-5"
         d="m 72.760423,70.516666 c 0,0.652167 -1.67417,1.180852 -3.73937,1.180852 -2.06519,0 -3.73935,-0.528685 -3.73935,-1.180852 0,-0.652165 1.67416,-1.18085 3.73935,-1.18085 2.0652,0 3.73937,0.528685 3.73937,1.18085 z"
         style="opacity:1;fill:#552200;fill-opacity:1;stroke:none;stroke-width:0.32016075;stroke-linecap:butt;stroke-miterlimit:4;stroke-dasharray:none;stroke-dashoffset:0;stroke-opacity:1;paint-order:stroke markers fill"
         inkscape:connector-curvature="0"
         sodipodi:nodetypes="sssss" />
      <path
         sodipodi:nodetypes="sssss"
         inkscape:connector-curvature="0"
         style="opacity:1;fill:#784421;fill-opacity:0.94554455;stroke:none;stroke-width:0.32016075;stroke-linecap:butt;stroke-miterlimit:4;stroke-dasharray:none;stroke-dashoffset:0;stroke-opacity:1;paint-order:stroke markers fill"
         d="m 73.611663,70.516666 c 0,0.652167 -1.67417,1.180852 -3.73936,1.180852 -2.0652,0 -3.73936,-0.528685 -3.73936,-1.180852 0,-0.652165 1.67416,-1.18085 3.73936,-1.18085 2.06519,0 3.73936,0.528685 3.73936,1.18085 z"
         id="path991-3" />
      <path
         inkscape:connector-curvature="0"
         id="path1019"
         d="m 58.208333,78.454166 1.32292,3.96875 v -3.96875 l 3.96875,-1.322916 -6.61458,1.322916 z"
         style="fill:#552200;fill-opacity:1;stroke:none;stroke-width:0.26458332px;stroke-linecap:butt;stroke-linejoin:miter;stroke-opacity:1" />
      <path
         sodipodi:nodetypes="csc"
         inkscape:connector-curvature="0"
         id="ellipse916-2"
         d="m 97.742281,103.62974 c -1.433948,1.01818 -13.1574,4.50643 -26.828621,0.92041 C 57.243007,100.96428 48.676247,91.684515 48.14708,91.155348"
         style="fill:none;fill-opacity:1;stroke:#d35f5f;stroke-width:0.94046795;stroke-linecap:butt;stroke-miterlimit:4;stroke-dasharray:none;stroke-dashoffset:0;stroke-opacity:0.96078431;paint-order:stroke markers fill" />
      <path
         style="fill:none;fill-opacity:1;stroke:#d35f5f;stroke-width:0;stroke-linecap:butt;stroke-miterlimit:4;stroke-dasharray:none;stroke-dashoffset:0;stroke-opacity:0.96078431;paint-order:stroke markers fill"
         d="m 48.390405,92.189992 c 1.231296,-3.97066 13.311626,-4.28227 26.982173,-0.69598 13.670546,3.58628 23.754551,9.712398 22.523255,13.683068"
         id="path915"
         inkscape:connector-curvature="0"
         sodipodi:nodetypes="csc" />
      <g
         transform="translate(-22.754946,25.692262)"
         id="g1020">
        <path
           inkscape:connector-curvature="0"
           style="opacity:1;fill:#f4d7d7;fill-opacity:1;stroke:#d35f5f;stroke-width:4.79857588;stroke-linecap:butt;stroke-miterlimit:4;stroke-dasharray:none;stroke-dashoffset:0;stroke-opacity:0.96078431;paint-order:stroke markers fill"
           d="m 535.24609,238.18359 c -11.29916,-0.41997 -90.08634,44.7879 -96.09961,54.36329 -6.01322,9.57541 40.84493,121.52997 46.13086,131.52539 5.28586,9.9953 57.09537,42.53122 68.39454,42.95117 11.29912,0.41987 65.38318,-28.18047 71.39648,-37.75586 6.01327,-9.5754 8.28586,-70.71366 3,-80.70899 -5.28593,-9.99534 -81.5231,-109.95508 -92.82227,-110.375 z m -82.41406,54.12305 a 7.5,7.5 0 0 1 4.62305,1.73828 7.5,7.5 0 0 1 0.95703,10.5625 7.5,7.5 0 0 1 -10.5625,0.95899 7.5,7.5 0 0 1 -0.95899,-10.56446 7.5,7.5 0 0 1 5.94141,-2.69531 z"
           id="path864"
           transform="scale(0.26458333)" />
        <path
           inkscape:connector-curvature="0"
           id="path847"
           style="font-style:normal;font-variant:normal;font-weight:normal;font-stretch:normal;font-size:10.58333302px;line-height:1.25;font-family:Pacifico;-inkscape-font-specification:Pacifico;letter-spacing:0px;word-spacing:0px;fill:#000000;fill-opacity:1;stroke:none;stroke-width:0.43088022"
           d="m 129.40473,79.504938 q -0.57596,-0.81704 -1.16,-1.944687 -0.32678,-0.613132 -0.25035,-0.983317 0.0764,-0.37019 0.6034,-0.699532 1.4641,-0.884508 3.7649,-1.958143 2.31488,-1.083568 4.58403,-1.90295 0.42168,-0.149656 0.77109,0.04687 0.3494,0.196521 0.68704,0.67547 0.60575,0.859304 0.1268,1.196934 -0.19718,0.139058 -0.51037,0.233245 -1.38514,0.42817 -3.54506,1.40251 -2.14583,0.964409 -3.97367,2.020954 0.25566,0.452397 0.63301,0.987697 1.73782,2.465208 4.08503,2.62406 2.35716,0.172944 4.85053,-1.584728 1.67635,-1.181709 1.91673,-2.785092 0.24038,-1.603383 -0.99098,-3.350155 -0.79443,-1.126955 -1.9311,-1.991557 -1.12674,-0.850516 -2.32992,-1.330854 -0.25587,-0.09376 -0.40483,-0.305059 -0.16881,-0.239472 -0.0709,-0.519369 0.11197,-0.289845 0.40774,-0.498432 0.33809,-0.238327 0.62883,-0.274584 0.30484,-0.04619 0.67665,0.09237 1.34727,0.505266 2.60888,1.577021 1.27567,1.061857 2.12971,2.273295 1.2115,1.718601 1.48956,3.399339 0.29215,1.670807 -0.38631,3.161269 -0.67847,1.490457 -2.31252,2.642404 -2.12712,1.499483 -4.31476,1.776398 -2.17355,0.266989 -4.18893,-0.737327 -2.01538,-1.004311 -3.59431,-3.244124 z" />
        <path
           inkscape:connector-curvature="0"
           id="path849"
           style="font-style:normal;font-variant:normal;font-weight:normal;font-stretch:normal;font-size:10.58333302px;line-height:1.25;font-family:Pacifico;-inkscape-font-specification:Pacifico;letter-spacing:0px;word-spacing:0px;fill:#000000;fill-opacity:1;stroke:none;stroke-width:0.43088022"
           d="m 135.73207,88.480708 q -0.37735,-0.5353 0.0272,-1.157901 0.41451,-0.608527 1.65417,-1.482394 1.83129,-1.290949 3.84688,-1.931582 0.4979,-0.161194 0.87964,-0.0086 0.40574,0.156795 0.77317,0.678018 0.19861,0.281741 0.20761,0.444079 0.009,0.162355 -0.18823,0.301356 -0.22541,0.158867 -1.16322,0.50368 -0.66277,0.256345 -1.14496,0.469735 -0.4822,0.213384 -1.14174,0.593977 1.53918,-0.389143 2.70701,-0.347819 1.16784,0.04133 1.87913,0.362317 0.7212,0.335074 1.0489,0.799943 0.64548,0.915652 -0.27017,1.561125 -0.18314,0.129089 -0.97684,0.498831 -0.64293,0.284509 -0.7838,0.383817 -0.49304,0.347562 -0.24478,0.699735 0.27805,0.394431 1.3348,0.577317 0.31223,0.05404 0.45126,0.251256 0.12909,0.183128 0.0296,0.400903 -0.0755,0.22192 -0.34316,0.410607 -0.52122,0.367423 -1.01565,0.294226 -0.68657,-0.106454 -1.35975,-0.433225 -0.64916,-0.322607 -1.06626,-0.914221 -0.52631,-0.746603 -0.42401,-1.409158 0.11223,-0.648464 0.76022,-1.105264 0.2113,-0.148963 0.4524,-0.255649 0.3016,-0.170435 0.40021,-0.239944 0.22541,-0.158868 0.11615,-0.313845 -0.14895,-0.211296 -0.87616,-0.225841 -0.7032,-0.01038 -1.71631,0.197701 -1.0131,0.208087 -2.02136,0.602532 -0.77132,0.311772 -1.15975,0.269284 -0.36442,-0.03833 -0.67224,-0.475049 z" />
        <path
           inkscape:connector-curvature="0"
           id="path851"
           style="font-style:normal;font-variant:normal;font-weight:normal;font-stretch:normal;font-size:10.58333302px;line-height:1.25;font-family:Pacifico;-inkscape-font-specification:Pacifico;letter-spacing:0px;word-spacing:0px;fill:#000000;fill-opacity:1;stroke:none;stroke-width:0.43088022"
           d="m 148.41164,90.403961 q -0.41707,-0.591648 -0.35796,-1.076155 0.0732,-0.494431 0.56624,-0.841993 0.49304,-0.347559 1.08516,-0.195614 0.61613,0.156104 1.02328,0.733666 0.36742,0.521213 0.34226,1.023959 -0.0252,0.502746 -0.49003,0.830445 -0.56348,0.397216 -1.15975,0.269288 -0.58219,-0.137863 -1.0092,-0.743599 z m -7.64411,5.219897 q -0.64547,-0.915649 -0.29539,-1.795052 0.36003,-0.865315 1.4306,-1.620039 0.63392,-0.446866 1.72923,-0.987037 1.11933,-0.536013 2.15738,-0.888202 0.54016,-0.190986 0.85815,-0.09885 0.318,0.09214 0.64571,0.557004 0.50644,0.718429 0.0275,1.056064 -0.35217,0.248259 -1.82276,0.884267 -1.78789,0.754251 -2.33728,1.141536 -0.4226,0.297915 -0.56855,0.569507 -0.14595,0.271571 0.0427,0.539224 0.17874,0.253567 0.79903,0.385649 0.6203,0.132088 1.82785,0.229761 0.31638,0.03001 0.46534,0.241318 0.12909,0.183141 0.0296,0.400909 -0.0896,0.231888 -0.38541,0.440405 -0.56348,0.397211 -1.06206,0.348034 -2.68763,-0.193036 -3.54163,-1.404508 z" />
        <path
           inkscape:connector-curvature="0"
           id="path853"
           style="font-style:normal;font-variant:normal;font-weight:normal;font-stretch:normal;font-size:10.58333302px;line-height:1.25;font-family:Pacifico;-inkscape-font-specification:Pacifico;letter-spacing:0px;word-spacing:0px;fill:#000000;fill-opacity:1;stroke:none;stroke-width:0.43088022"
           d="m 142.69496,98.358034 q -0.37736,-0.535301 0.0272,-1.157902 0.41451,-0.608526 1.65416,-1.482385 1.83129,-1.290955 3.84688,-1.931585 0.4979,-0.161194 0.87964,-0.0086 0.40575,0.156796 0.77317,0.678017 0.19861,0.281734 0.20762,0.444085 0.009,0.162349 -0.18823,0.301356 -0.22541,0.158868 -1.16322,0.503681 -0.66277,0.256341 -1.14496,0.469736 -0.4822,0.213382 -1.14173,0.593969 1.53917,-0.389138 2.707,-0.347812 1.16784,0.04132 1.87912,0.362309 0.72121,0.335082 1.04891,0.79995 0.64548,0.91565 -0.27016,1.56112 -0.5494,0.387279 -2.20473,1.090267 -1.41423,0.59629 -1.80866,0.87434 -0.56347,0.39721 -0.27551,0.80573 0.19862,0.28173 0.80483,0.42375 0.63021,0.14618 1.86179,0.24801 0.31637,0.03 0.46533,0.24133 0.12909,0.18314 0.0296,0.40089 -0.0896,0.2319 -0.38542,0.44042 -0.56347,0.39722 -1.06206,0.34803 -1.17361,-0.0794 -2.14908,-0.44614 -0.96555,-0.35262 -1.59114,-1.24012 -0.50645,-0.71844 -0.35612,-1.37267 0.16442,-0.66417 0.9533,-1.220251 0.39443,-0.27805 1.54771,-0.795818 1.01656,-0.442485 1.35465,-0.680813 0.22541,-0.15887 0.11615,-0.313848 -0.12908,-0.183135 -0.84637,-0.183583 -0.69327,0.0037 -1.7163,0.197701 -1.01311,0.208089 -2.02137,0.602535 -0.77131,0.311778 -1.15975,0.269284 -0.36441,-0.03833 -0.67224,-0.475049 z" />
        <path
           inkscape:connector-curvature="0"
           id="path855"
           style="font-style:normal;font-variant:normal;font-weight:normal;font-stretch:normal;font-size:10.58333302px;line-height:1.25;font-family:Pacifico;-inkscape-font-specification:Pacifico;letter-spacing:0px;word-spacing:0px;fill:#000000;fill-opacity:1;stroke:none;stroke-width:0.43088022"
           d="m 152.67216,109.25082 q 0.29444,0.657 -0.22677,1.02442 -0.35217,0.24826 -0.8623,0.12287 -0.48612,-0.12124 -0.90319,-0.7129 -0.71498,-1.01426 -0.55196,-2.0992 0.18705,-1.08077 1.2013,-1.79575 0.54939,-0.38729 1.18608,0.007 0.70459,0.43114 1.18909,0.49025 0.49859,0.0492 0.93529,-0.25866 0.25357,-0.17874 0.30086,-0.38085 0.0572,-0.18798 -0.052,-0.34293 -0.26811,-0.38035 -1.14521,-0.45793 -0.86716,-0.0635 -2.01859,0.15775 -1.13735,0.21132 -2.21189,0.6314 -0.77131,0.31177 -1.15975,0.26928 -0.36441,-0.0383 -0.67224,-0.47505 -0.30784,-0.43668 -0.14688,-0.86646 0.18497,-0.42561 0.79745,-0.96274 0.61244,-0.53716 1.89434,-1.44082 2.16939,-1.52927 4.82974,-2.750944 2.67027,-1.207592 4.86785,-1.470418 2.22158,-0.258675 3.07559,0.952796 0.4568,0.648001 0.17138,1.439646 -0.26141,0.79581 -1.14888,1.42142 -1.42278,1.00296 -3.54414,1.25425 -2.10727,0.24135 -5.47061,-0.1923 -0.76231,0.47411 -1.53709,1.02029 2.23753,-0.56513 3.64207,-0.24784 1.41864,0.30736 1.95487,1.06805 0.49652,0.70434 0.31548,1.46458 -0.17112,0.77433 -0.87546,1.27084 -0.77477,0.54618 -1.70083,0.60853 -0.92604,0.0624 -2.10844,-0.53804 -0.36299,0.38245 -0.35331,0.75516 0.0337,0.37688 0.32817,1.03389 z m 8.72367,-9.671188 q -0.17875,-0.253559 -1.12974,-0.0471 -0.93689,0.196539 -2.38508,0.774588 -1.42417,0.5822 -3.00421,1.42189 1.64403,0.14848 3.25271,-0.14206 1.61862,-0.27644 2.6047,-0.97157 0.45079,-0.31777 0.62075,-0.58519 0.16996,-0.267422 0.0409,-0.450552 z" />
        <path
           inkscape:connector-curvature="0"
           id="path857"
           style="font-style:normal;font-variant:normal;font-weight:normal;font-stretch:normal;font-size:10.58333302px;line-height:1.25;font-family:Pacifico;-inkscape-font-specification:Pacifico;letter-spacing:0px;word-spacing:0px;fill:#000000;fill-opacity:1;stroke:none;stroke-width:0.43088022"
           d="m 131.03257,102.98224 q -0.37735,-0.5353 0.0272,-1.1579 0.41451,-0.60853 1.65416,-1.48239 1.8313,-1.29094 3.84688,-1.931582 0.49791,-0.1612 0.87964,-0.0086 0.40575,0.15679 0.77321,0.677971 0.19862,0.281727 0.20761,0.444078 0.009,0.162357 -0.18823,0.301356 -0.22542,0.158871 -1.16322,0.503677 -0.66278,0.25635 -1.14497,0.46974 -0.46811,0.20346 -1.12765,0.58405 1.36691,-0.39422 2.49502,-0.40925 1.13805,-9.4e-4 1.89159,0.29027 0.77756,0.29536 1.12512,0.78839 0.34756,0.49304 0.2612,0.84914 -0.0764,0.3702 -0.54134,0.69787 -0.45077,0.31777 -1.82275,0.88427 -0.58657,0.24479 -0.86993,0.38129 2.22921,-0.5171 3.62383,-0.2139 1.39461,0.30321 1.92092,1.04981 0.64548,0.91565 -0.27018,1.56112 -0.54939,0.38729 -2.20471,1.09027 -1.41424,0.5963 -1.80866,0.87434 -0.56349,0.39721 -0.27551,0.80573 0.19862,0.28172 0.80481,0.42375 0.63022,0.14618 1.8618,0.24802 0.31638,0.03 0.46534,0.24131 0.12908,0.18314 0.0296,0.40091 -0.0896,0.23188 -0.38541,0.44041 -0.56347,0.39721 -1.06206,0.34803 -1.17361,-0.0794 -2.14908,-0.44615 -0.96554,-0.35262 -1.59114,-1.24011 -0.50645,-0.71843 -0.35612,-1.37267 0.16442,-0.66417 0.9533,-1.22026 0.39443,-0.27804 1.54771,-0.79582 1.01657,-0.44247 1.35466,-0.6808 0.22541,-0.15887 0.11615,-0.31385 -0.12908,-0.18313 -0.84637,-0.18358 -0.70321,-0.0104 -1.71631,0.19771 -1.01311,0.20807 -2.02136,0.60253 -0.78541,0.32169 -1.15975,0.26927 -0.36441,-0.0383 -0.6822,-0.48909 -0.32771,-0.46486 -0.0598,-1.01219 0.29189,-0.54315 0.92578,-0.99002 0.5353,-0.37735 1.64887,-0.95147 0.98101,-0.52285 1.26275,-0.72145 0.2254,-0.15887 0.11615,-0.31384 -0.14897,-0.2113 -0.88449,-0.17781 -0.73552,0.0335 -1.74285,0.27967 -0.9974,0.26028 -1.88719,0.61339 -0.77132,0.31178 -1.15974,0.26928 -0.36443,-0.0383 -0.67224,-0.47505 z" />
        <path
           inkscape:connector-curvature="0"
           id="path859"
           style="font-style:normal;font-variant:normal;font-weight:normal;font-stretch:normal;font-size:10.58333302px;line-height:1.25;font-family:Pacifico;-inkscape-font-specification:Pacifico;letter-spacing:0px;word-spacing:0px;fill:#000000;fill-opacity:1;stroke:none;stroke-width:0.43088022"
           d="m 144.06136,115.5416 q 0.12908,0.18314 0.0296,0.4009 -0.0896,0.23188 -0.3854,0.44041 -0.50713,0.35749 -1.04219,0.37621 -0.8838,0.0326 -1.67867,-0.37709 -0.78495,-0.39559 -1.41058,-1.28305 -0.95331,-1.35234 -0.67667,-2.66498 0.29074,-1.32257 1.67125,-2.29573 0.97199,-0.6852 2.0911,-0.86257 1.13319,-0.1873 2.13268,0.18357 1.00942,0.38495 1.65492,1.30058 0.57596,0.81703 0.43048,1.65764 -0.13139,0.83067 -0.96252,1.41656 -0.972,0.68519 -2.17286,0.47737 -1.17684,-0.20368 -2.76708,-1.59203 -0.40965,0.79488 0.15637,1.59783 0.40715,0.57756 0.93296,0.75518 0.53577,0.19167 1.51724,0.23785 0.33046,0.0201 0.47942,0.23138 z m 0.83663,-4.04806 q -0.36742,-0.52121 -1.23135,-0.46047 -0.854,0.0748 -1.7133,0.68059 l -0.0282,0.0198 q 0.78312,0.69209 1.51518,0.893 0.73206,0.2009 1.25328,-0.16652 0.26768,-0.18865 0.31337,-0.45286 0.0697,-0.26004 -0.10901,-0.5136 z" />
        <path
           inkscape:connector-curvature="0"
           id="path861"
           style="font-style:normal;font-variant:normal;font-weight:normal;font-stretch:normal;font-size:10.58333302px;line-height:1.25;font-family:Pacifico;-inkscape-font-specification:Pacifico;letter-spacing:0px;word-spacing:0px;fill:#000000;fill-opacity:1;stroke:none;stroke-width:0.43088022"
           d="m 146.71514,118.07971 q -0.19861,-0.28173 -0.20092,-0.55424 -0.002,-0.2725 0.26535,-0.46116 l 0.12261,-0.0654 q 1.74655,-0.87272 4.04896,-1.88425 2.3024,-1.01152 4.01569,-1.6921 1.06045,-0.41015 1.76551,0.59002 0.63554,0.90156 0.058,1.30871 -0.12675,0.0894 -0.31154,0.15631 -1.7514,0.68636 -4.30553,1.58011 -2.54004,0.88381 -4.49097,1.43669 -0.56001,0.16283 -0.96716,-0.41474 z m -3.74413,1.83805 q -0.43693,-0.61983 -0.32724,-1.18215 0.11961,-0.54824 0.66902,-0.93551 0.63391,-0.44685 1.26252,-0.36281 0.63853,0.0981 1.09533,0.74615 0.43693,0.61981 0.3455,1.1482 -0.0674,0.53254 -0.65908,0.94961 -0.64799,0.45679 -1.30063,0.36858 -0.63852,-0.0981 -1.08539,-0.73205 z" />
      </g>
      <path
         style="fill:none;fill-opacity:1;stroke:#d35f5f;stroke-width:0.94046795;stroke-linecap:butt;stroke-miterlimit:4;stroke-dasharray:none;stroke-dashoffset:0;stroke-opacity:0.96078431;paint-order:stroke markers fill"
         d="m 97.742281,103.62974 c -1.433948,1.01818 -13.1574,4.50643 -26.828621,0.92041 C 57.243007,100.96428 48.676247,91.684515 48.14708,91.155348"
         id="path974"
         inkscape:connector-curvature="0"
         sodipodi:nodetypes="csc" />
      <path
         sodipodi:nodetypes="csc"
         inkscape:connector-curvature="0"
         id="path976"
         d="m 48.390405,92.189992 c 1.231296,-3.97066 13.311626,-4.28227 26.982173,-0.69598 13.670546,3.58628 23.754551,9.712398 22.523255,13.683068"
         style="fill:none;fill-opacity:1;stroke:#d35f5f;stroke-width:0;stroke-linecap:butt;stroke-miterlimit:4;stroke-dasharray:none;stroke-dashoffset:0;stroke-opacity:0.96078431;paint-order:stroke markers fill" />
    </g>
    <path
       style="opacity:1;fill:#aa3200;fill-opacity:1;stroke:#ff5555;stroke-width:0.39314815;stroke-linecap:butt;stroke-miterlimit:4;stroke-dasharray:none;stroke-dashoffset:0;stroke-opacity:0.96078431;paint-order:normal"
       d="m 102.00361,190.59323 c -0.98227,-0.0483 -1.08194,0.40687 -8.862763,1.04719 -13.83261,1.13835 -3.858946,-1.03042 -15.155919,2.73318 -11.296964,3.76359 -4.707468,0.39545 -12.069688,5.94458 -7.36221,5.54914 -4.449712,1.45878 -0.644265,11.46879 1.902728,5.005 1.284294,6.38284 1.462584,7.0576 0.178289,0.67476 1.153406,0.64636 6.244779,2.83991 5.091372,2.19354 5.55349,2.77965 6.424292,3.03038 0.870804,0.25072 2.150332,0.16631 8.877231,1.01927 13.453809,1.70591 2.854551,1.53312 16.651409,0.50764 13.79685,-1.02548 4.68841,0.95737 16.06997,-2.91021 11.38156,-3.86757 4.62822,-0.47038 11.74355,-6.13408 7.11535,-5.66368 4.34522,-1.16509 5.22302,-7.64004 0.87777,-6.47495 1.36192,-1.64734 -3.71755,-7.6166 -5.07947,-5.96928 1.04536,-2.50029 -9.42875,-6.63025 -10.47412,-4.12998 -1.49803,-1.72229 -14.89512,-3.54201 -5.86123,-0.79613 -7.1588,-1.13784 -7.92278,-1.17535 z m -0.17852,1.45111 c 0.70276,0.0345 1.89696,0.34926 7.28849,1.0816 12.32347,1.67389 4.06656,-0.54073 13.7013,3.25828 9.63475,3.799 4.00037,0.60774 8.67279,6.09866 4.67241,5.4909 4.22727,1.05018 3.41984,7.00624 -0.80747,5.95607 1.74099,1.81787 -4.80415,7.02769 -6.54512,5.20983 -0.3336,2.08525 -10.80307,5.64288 -10.46946,3.55766 -2.09071,1.73303 -14.78192,2.67635 -12.691211,0.9433 -2.94132,1.10244 -15.316977,-0.46676 -6.187825,-0.7846 -7.364623,-0.70686 -8.165638,-0.93749 -0.801016,-0.23064 -1.226301,-0.76977 -5.909673,-2.78753 -4.683352,-2.01775 -5.580614,-1.99183 -5.744613,-2.61251 -0.163997,-0.62068 0.405349,-1.88771 -1.344904,-6.49161 -3.500486,-9.20784 -6.179807,-5.44534 0.592417,-10.54976 6.772225,-5.10445 0.710617,-2.00587 11.102271,-5.46786 10.391673,-3.462 1.217557,-1.46763 13.941662,-2.51477 7.157315,-0.58899 7.248605,-1.00777 8.152175,-0.96341 z"
       id="path1209"
       inkscape:connector-curvature="0" />
    <ellipse
       cx="92.37426"
       cy="220.21387"
       rx="2.3051996"
       ry="1.1693041"
       id="ellipse1570"
       style="opacity:1;fill:#803300;fill-opacity:1;stroke:none;stroke-width:0.40700001;stroke-linecap:round;stroke-miterlimit:4;stroke-dasharray:none;stroke-dashoffset:0;stroke-opacity:0.96078431;paint-order:stroke fill markers" />
    <ellipse
       style="opacity:1;fill:#552200;fill-opacity:1;stroke:none;stroke-width:0.40700001;stroke-linecap:round;stroke-miterlimit:4;stroke-dasharray:none;stroke-dashoffset:0;stroke-opacity:0.96078431;paint-order:stroke fill markers"
       id="path1563"
       ry="1.1693041"
       rx="2.3051996"
       cy="219.76956"
       cx="92.242798" />
    <path
       cx="92.445129"
       cy="220.33318"
       rx="2.3051996"
       ry="1.1693041"
       id="path1568"
       style="opacity:1;fill:#552200;fill-opacity:1;stroke:none;stroke-width:0.40700001;stroke-linecap:round;stroke-miterlimit:4;stroke-dasharray:none;stroke-dashoffset:0;stroke-opacity:0.96078431;paint-order:stroke fill markers" />
    <g
       id="g1580">
      <ellipse
         cx="114.39198"
         cy="197.46872"
         rx="3.1550372"
         ry="1.6003811"
         id="ellipse1574"
         style="opacity:1;fill:#803300;fill-opacity:1;stroke:none;stroke-width:0.5570451;stroke-linecap:round;stroke-miterlimit:4;stroke-dasharray:none;stroke-dashoffset:0;stroke-opacity:0.96078431;paint-order:stroke fill markers" />
      <ellipse
         style="opacity:1;fill:#552200;fill-opacity:1;stroke:none;stroke-width:0.5570451;stroke-linecap:round;stroke-miterlimit:4;stroke-dasharray:none;stroke-dashoffset:0;stroke-opacity:0.96078431;paint-order:stroke fill markers"
         id="ellipse1576"
         ry="1.6003811"
         rx="3.1550372"
         cy="196.86061"
         cx="114.21206" />
    </g>
    <g
       id="g1586"
       transform="matrix(0.80344068,0,0,0.76431507,21.829292,50.791843)">
      <ellipse
         style="opacity:1;fill:#803300;fill-opacity:1;stroke:none;stroke-width:0.5570451;stroke-linecap:round;stroke-miterlimit:4;stroke-dasharray:none;stroke-dashoffset:0;stroke-opacity:0.96078431;paint-order:stroke fill markers"
         id="ellipse1582"
         ry="1.6003811"
         rx="3.1550372"
         cy="197.46872"
         cx="114.39198" />
      <ellipse
         cx="114.21206"
         cy="196.86061"
         rx="3.1550372"
         ry="1.6003811"
         id="ellipse1584"
         style="opacity:1;fill:#552200;fill-opacity:1;stroke:none;stroke-width:0.5570451;stroke-linecap:round;stroke-miterlimit:4;stroke-dasharray:none;stroke-dashoffset:0;stroke-opacity:0.96078431;paint-order:stroke fill markers" />
    </g>
    <g
       transform="matrix(1.1455995,0,0,1.2232805,-45.651989,-43.078077)"
       id="g1592">
      <ellipse
         cx="114.39198"
         cy="197.46872"
         rx="3.1550372"
         ry="1.6003811"
         id="ellipse1588"
         style="opacity:1;fill:#803300;fill-opacity:1;stroke:none;stroke-width:0.5570451;stroke-linecap:round;stroke-miterlimit:4;stroke-dasharray:none;stroke-dashoffset:0;stroke-opacity:0.96078431;paint-order:stroke fill markers" />
      <ellipse
         style="opacity:1;fill:#552200;fill-opacity:1;stroke:none;stroke-width:0.5570451;stroke-linecap:round;stroke-miterlimit:4;stroke-dasharray:none;stroke-dashoffset:0;stroke-opacity:0.96078431;paint-order:stroke fill markers"
         id="ellipse1590"
         ry="1.6003811"
         rx="3.1550372"
         cy="196.86061"
         cx="114.21206" />
    </g>
    <g
       id="g1598"
       transform="translate(-35.671503,21.024925)">
      <ellipse
         style="opacity:1;fill:#803300;fill-opacity:1;stroke:none;stroke-width:0.5570451;stroke-linecap:round;stroke-miterlimit:4;stroke-dasharray:none;stroke-dashoffset:0;stroke-opacity:0.96078431;paint-order:stroke fill markers"
         id="ellipse1594"
         ry="1.6003811"
         rx="3.1550372"
         cy="197.46872"
         cx="114.39198" />
      <ellipse
         cx="114.21206"
         cy="196.86061"
         rx="3.1550372"
         ry="1.6003811"
         id="ellipse1596"
         style="opacity:1;fill:#552200;fill-opacity:1;stroke:none;stroke-width:0.5570451;stroke-linecap:round;stroke-miterlimit:4;stroke-dasharray:none;stroke-dashoffset:0;stroke-opacity:0.96078431;paint-order:stroke fill markers" />
    </g>
    <g
       transform="matrix(0.62144132,0,0,0.70229272,48.041972,79.816775)"
       id="g1604">
      <ellipse
         cx="114.39198"
         cy="197.46872"
         rx="3.1550372"
         ry="1.6003811"
         id="ellipse1600"
         style="opacity:1;fill:#803300;fill-opacity:1;stroke:none;stroke-width:0.5570451;stroke-linecap:round;stroke-miterlimit:4;stroke-dasharray:none;stroke-dashoffset:0;stroke-opacity:0.96078431;paint-order:stroke fill markers" />
      <ellipse
         style="opacity:1;fill:#552200;fill-opacity:1;stroke:none;stroke-width:0.5570451;stroke-linecap:round;stroke-miterlimit:4;stroke-dasharray:none;stroke-dashoffset:0;stroke-opacity:0.96078431;paint-order:stroke fill markers"
         id="ellipse1602"
         ry="1.6003811"
         rx="3.1550372"
         cy="196.86061"
         cx="114.21206" />
    </g>
    <g
       id="g1655"
       transform="matrix(0.45000076,0,0,0.45672567,32.599981,119.27785)">
      <path
         style="opacity:1;fill:#552200;fill-opacity:1;stroke:none;stroke-width:0.59094733;stroke-linecap:round;stroke-miterlimit:4;stroke-dasharray:none;stroke-dashoffset:0;stroke-opacity:0.96078431;paint-order:stroke fill markers"
         id="path1651"
         sodipodi:type="arc"
         sodipodi:cx="88.933334"
         sodipodi:cy="199.59782"
         sodipodi:rx="1.3446739"
         sodipodi:ry="1.0394346"
         sodipodi:start="0"
         sodipodi:end="6.2754884"
         d="m 90.278008,199.59782 a 1.3446739,1.0394346 0 0 1 -1.342086,1.03944 1.3446739,1.0394346 0 0 1 -1.347252,-1.03544 1.3446739,1.0394346 0 0 1 1.336902,-1.04341 1.3446739,1.0394346 0 0 1 1.352396,1.03141 l -1.344634,0.008 z"
         transform="matrix(0.9486833,0.31622775,0,1,0,0)" />
      <path
         transform="matrix(0.9486833,0.31622775,0,1,0,0)"
         d="m 89.979188,199.8813 a 1.3446739,1.0394346 0 0 1 -1.342087,1.03943 1.3446739,1.0394346 0 0 1 -1.347251,-1.03543 1.3446739,1.0394346 0 0 1 1.336902,-1.04342 1.3446739,1.0394346 0 0 1 1.352396,1.03142 l -1.344634,0.008 z"
         sodipodi:end="6.2754884"
         sodipodi:start="0"
         sodipodi:ry="1.0394346"
         sodipodi:rx="1.3446739"
         sodipodi:cy="199.8813"
         sodipodi:cx="88.634514"
         sodipodi:type="arc"
         id="path1653"
         style="opacity:1;fill:#c87137;fill-opacity:1;stroke:none;stroke-width:0.59094733;stroke-linecap:round;stroke-miterlimit:4;stroke-dasharray:none;stroke-dashoffset:0;stroke-opacity:0.96078431;paint-order:stroke fill markers" />
    </g>
    <ellipse
       style="opacity:1;fill:#552200;fill-opacity:1;stroke:none;stroke-width:0.5570451;stroke-linecap:round;stroke-miterlimit:4;stroke-dasharray:none;stroke-dashoffset:0;stroke-opacity:0.96078431;paint-order:stroke fill markers"
       id="ellipse1657"
       ry="1.6003811"
       rx="3.1550372"
       cy="220.57251"
       cx="101.21006" />
    <ellipse
       cx="101.03014"
       cy="219.9644"
       rx="3.1550372"
       ry="1.6003811"
       id="ellipse1659"
       style="opacity:1;fill:#c87137;fill-opacity:1;stroke:none;stroke-width:0.5570451;stroke-linecap:round;stroke-miterlimit:4;stroke-dasharray:none;stroke-dashoffset:0;stroke-opacity:0.96078431;paint-order:stroke fill markers" />
    <g
       id="g1671"
       transform="translate(12.425967,-21.686384)">
      <ellipse
         style="opacity:1;fill:#552200;fill-opacity:1;stroke:none;stroke-width:0.5570451;stroke-linecap:round;stroke-miterlimit:4;stroke-dasharray:none;stroke-dashoffset:0;stroke-opacity:0.96078431;paint-order:stroke fill markers"
         id="ellipse1665"
         ry="1.6003811"
         rx="3.1550372"
         cy="218.72987"
         cx="91.193687" />
      <ellipse
         cx="91.013771"
         cy="218.12177"
         rx="3.1550372"
         ry="1.6003811"
         id="ellipse1667"
         style="opacity:1;fill:#c87137;fill-opacity:1;stroke:none;stroke-width:0.5570451;stroke-linecap:round;stroke-miterlimit:4;stroke-dasharray:none;stroke-dashoffset:0;stroke-opacity:0.96078431;paint-order:stroke fill markers" />
    </g>
    <g
       transform="matrix(0.55592102,0,0,0.55343908,73.506544,94.800107)"
       id="g1677">
      <ellipse
         cx="91.193687"
         cy="218.72987"
         rx="3.1550372"
         ry="1.6003811"
         id="ellipse1673"
         style="opacity:1;fill:#552200;fill-opacity:1;stroke:none;stroke-width:0.5570451;stroke-linecap:round;stroke-miterlimit:4;stroke-dasharray:none;stroke-dashoffset:0;stroke-opacity:0.96078431;paint-order:stroke fill markers" />
      <ellipse
         style="opacity:1;fill:#c87137;fill-opacity:1;stroke:none;stroke-width:0.5570451;stroke-linecap:round;stroke-miterlimit:4;stroke-dasharray:none;stroke-dashoffset:0;stroke-opacity:0.96078431;paint-order:stroke fill markers"
         id="ellipse1675"
         ry="1.6003811"
         rx="3.1550372"
         cy="218.12177"
         cx="91.013771" />
    </g>
  </g>
</svg>
