<?xml version="1.0" encoding="UTF-8" standalone="no"?>
<!-- Created with Inkscape (http://www.inkscape.org/) -->

<svg
   xmlns:dc="http://purl.org/dc/elements/1.1/"
   xmlns:cc="http://creativecommons.org/ns#"
   xmlns:rdf="http://www.w3.org/1999/02/22-rdf-syntax-ns#"
   xmlns:svg="http://www.w3.org/2000/svg"
   xmlns="http://www.w3.org/2000/svg"
   xmlns:xlink="http://www.w3.org/1999/xlink"
   xmlns:sodipodi="http://sodipodi.sourceforge.net/DTD/sodipodi-0.dtd"
   xmlns:inkscape="http://www.inkscape.org/namespaces/inkscape"
   width="113.49704mm"
   height="132.90063mm"
   viewBox="0 0 113.49704 132.90063"
   version="1.1"
   id="svg8"
   inkscape:version="0.92.4 (5da689c313, 2019-01-14)"
   sodipodi:docname="potion.svg">
  <defs
     id="defs2">
    <linearGradient
       inkscape:collect="always"
       id="linearGradient875">
      <stop
         style="stop-color:#3771c8;stop-opacity:1;"
         offset="0"
         id="stop871" />
      <stop
         style="stop-color:#003380;stop-opacity:1"
         offset="1"
         id="stop873" />
    </linearGradient>
    <linearGradient
       inkscape:collect="always"
       xlink:href="#linearGradient875"
       id="linearGradient877"
       x1="113.77084"
       y1="87.979164"
       x2="116.41666"
       y2="188.52083"
       gradientUnits="userSpaceOnUse"
       gradientTransform="translate(-47.624997,5.291667)" />
  </defs>
  <sodipodi:namedview
     id="base"
     pagecolor="#ffffff"
     bordercolor="#666666"
     borderopacity="1.0"
     inkscape:pageopacity="0.0"
     inkscape:pageshadow="2"
     inkscape:zoom="1.979899"
     inkscape:cx="271.96051"
     inkscape:cy="127.33045"
     inkscape:document-units="mm"
     inkscape:current-layer="layer1"
     showgrid="true"
     showguides="false"
     inkscape:window-width="2560"
     inkscape:window-height="1376"
     inkscape:window-x="1920"
     inkscape:window-y="27"
     inkscape:window-maximized="1" />
  <metadata
     id="metadata5">
    <rdf:RDF>
      <cc:Work
         rdf:about="">
        <dc:format>image/svg+xml</dc:format>
        <dc:type
           rdf:resource="http://purl.org/dc/dcmitype/StillImage" />
        <dc:title></dc:title>
      </cc:Work>
    </rdf:RDF>
  </metadata>
  <g
     inkscape:label="Potion"
     inkscape:groupmode="layer"
     id="layer1"
     transform="translate(-16.549145,-101.10974)"
     style="display:inline">
    <text
       xml:space="preserve"
       style="font-style:normal;font-variant:normal;font-weight:normal;font-stretch:normal;font-size:10.58333302px;line-height:1.25;font-family:'Open Sans';-inkscape-font-specification:'Open Sans';letter-spacing:0px;word-spacing:0px;fill:#000000;fill-opacity:1;stroke:none;stroke-width:0.26458332"
       x="68.791664"
       y="37.708332"
       id="text1047" />
    <g
       id="g1026"
       transform="translate(-14.793931,34.395878)">
      <path
         inkscape:transform-center-x="1.1880952e-06"
         sodipodi:nodetypes="sscsscs"
         inkscape:connector-curvature="0"
         id="path843"
         d="m 103.1875,114.4375 c 0,4.23374 -22.037327,80.69347 -25.703857,82.81034 -3.66654,2.11688 -15.99118,2.11688 -19.65771,0 -3.66653,-2.11687 -25.703857,-78.5766 -25.703857,-82.81034 0,-4.23375 16.745658,-24.072643 20.412187,-26.189517 3.66653,-2.116873 26.57451,-2.116873 30.24105,0 3.66653,2.116874 20.412187,21.955767 20.412187,26.189517 z"
         style="fill:#aaeeff;fill-opacity:1;stroke:#2ad4ff;stroke-width:1.55799997;stroke-linecap:butt;stroke-miterlimit:4;stroke-dasharray:none;stroke-dashoffset:0;stroke-opacity:0.96078431;paint-order:stroke markers fill" />
      <path
         sodipodi:nodetypes="cccc"
         inkscape:connector-curvature="0"
         style="fill:none;fill-opacity:1;stroke:#d35f5f;stroke-width:0.80000001;stroke-linecap:butt;stroke-miterlimit:4;stroke-dasharray:none;stroke-dashoffset:0;stroke-opacity:0.96078431;paint-order:stroke markers fill"
         d="m 82.814583,95.652087 c 1.42428,0.570341 6.89301,2.58251 8.12973,3.18637 1.23673,0.60386 2.37203,1.220123 3.39101,1.839163 0.14593,0.0887 0.24439,0.17738 0.38551,0.26613"
         id="path921" />
      <path
         style="fill:none;fill-opacity:1;stroke:#2ad4ff;stroke-width:0.89999998;stroke-linecap:butt;stroke-miterlimit:4;stroke-dasharray:none;stroke-dashoffset:0;stroke-opacity:0.96078431;paint-order:normal"
         d="m 103.1875,114.4375 c 0,4.23374 -22.037327,80.69347 -25.703857,82.81034 -3.66654,2.11688 -15.99118,2.11688 -19.65771,0 -3.66653,-2.11687 -25.703857,-78.5766 -25.703857,-82.81034 0,-4.23375 16.745658,-24.072643 20.412187,-26.189517 3.66653,-2.116873 26.57451,-2.116873 30.24105,0 3.66653,2.116874 20.412187,21.955767 20.412187,26.189517 z"
         id="path957"
         inkscape:connector-curvature="0"
         sodipodi:nodetypes="sscsscs"
         inkscape:transform-center-x="1.1880952e-06" />
      <path
         style="fill:url(#linearGradient877);fill-opacity:1;stroke:#003380;stroke-width:1.32599998;stroke-linecap:butt;stroke-miterlimit:4;stroke-dasharray:none;stroke-dashoffset:0;stroke-opacity:0.96078431;paint-order:stroke markers fill"
         d="m 97.895833,116.00774 c 0,3.60324 -18.75544,76.08463 -21.87594,77.88624 -3.1205,1.80163 -13.60971,1.80163 -16.73021,0 -3.1205,-1.80161 -21.87594,-74.283 -21.87594,-77.88624 0,-3.60324 14.251831,-20.487634 17.37233,-22.289255 3.12049,-1.80162 22.61693,-1.80162 25.73743,0 3.1205,1.801621 17.37233,18.686015 17.37233,22.289255 z"
         id="path850"
         inkscape:connector-curvature="0"
         sodipodi:nodetypes="sscsscs"
         inkscape:transform-center-x="2.6880952e-06" />
      <path
         inkscape:transform-center-x="2.6880952e-06"
         sodipodi:nodetypes="sccsscs"
         inkscape:connector-curvature="0"
         id="path892"
         d="m 97.895833,116.00774 c 0,3.60324 -13.18968,7.56727 -13.18968,7.56727 l -34.035912,0.0668 c 0,0 -13.256498,-4.03084 -13.256498,-7.63408 0,-3.60324 14.251831,-20.487634 17.37233,-22.289255 3.12049,-1.80162 22.61693,-1.80162 25.73743,0 3.1205,1.801621 17.37233,18.686015 17.37233,22.289255 z"
         style="fill:#2ad4ff;fill-opacity:1;stroke:#003380;stroke-width:1.32599998;stroke-linecap:butt;stroke-miterlimit:4;stroke-dasharray:none;stroke-dashoffset:0;stroke-opacity:0.96078431;paint-order:stroke markers fill" />
      <path
         sodipodi:nodetypes="cscsssc"
         inkscape:connector-curvature="0"
         id="path881"
         d="m 78.18231,162.06246 c 3.205917,-20.64066 6.484358,-36.49563 6.484358,-38.50419 0,-3.60324 -8.017121,-28.03834 -9.77253,-29.83996 -0.877711,-0.900811 -4.058603,-1.350822 -7.239352,-1.350822 -3.180747,0 -6.361645,0.450011 -7.239349,1.350822 -1.75541,1.80162 -9.772531,26.23672 -9.772531,29.83996 0,2.00856 3.278441,17.86353 6.484358,38.50419"
         style="fill:none;fill-opacity:1;stroke:#003380;stroke-width:0.62599999;stroke-linecap:butt;stroke-miterlimit:4;stroke-dasharray:none;stroke-dashoffset:0;stroke-opacity:0.96078431;paint-order:stroke markers fill" />
      <path
         inkscape:connector-curvature="0"
         id="path894"
         d="m 79.017401,95.427767 c -1.561716,0.01882 -1.964613,0.986441 -1.252638,2.080493 0.33777,0.739381 0.736542,1.713161 1.172023,2.84737 0.870979,2.26841 1.888323,5.17842 2.858222,8.13749 0.618855,1.88811 1.210543,3.78109 1.739947,5.55522 L 93.7457,109.49512 C 89.863675,104.07143 83.693121,97.120434 81.869422,96.067519 80.676511,95.607041 79.727271,95.419213 79.017401,95.427767 Z m 17.458883,18.393713 -11.572422,5.1604 c 0.100788,0.40767 0.200337,0.81151 0.276471,1.15911 0.194228,0.88671 0.30334,1.56357 0.30334,1.95646 0,0.002 -0.0021,0.0127 -0.0021,0.0145 h 0.03617 c 0,0 11.506274,-3.45796 11.506274,-6.60114 0,-0.39574 -0.197816,-0.97565 -0.54777,-1.6893 z"
         style="fill:#d5f6ff;fill-opacity:0.94554455;stroke:none;stroke-width:1.15669382;stroke-linecap:butt;stroke-miterlimit:4;stroke-dasharray:none;stroke-dashoffset:0;stroke-opacity:0.96078431;paint-order:stroke markers fill" />
      <path
         sodipodi:nodetypes="csccscc"
         inkscape:connector-curvature="0"
         id="ellipse916"
         d="m 85.611613,89.869048 c 0,3.172458 -8.14399,5.744243 -18.19011,5.744243 -10.04612,0 -18.190108,-2.571786 -18.190108,-5.744243 v -8.56265 c 0,-3.172458 8.143988,-4.156743 18.190108,-4.156743 10.04612,-10e-7 18.19011,0.984284 18.19011,4.156743 z"
         style="fill:#aaeeff;fill-opacity:1;stroke:#2ad4ff;stroke-width:1.55799997;stroke-linecap:butt;stroke-miterlimit:4;stroke-dasharray:none;stroke-dashoffset:0;stroke-opacity:0.96078431;paint-order:stroke markers fill" />
      <path
         inkscape:connector-curvature="0"
         id="path914"
         d="m 85.611613,81.306397 a 18.190102,5.7442429 0 0 1 -18.19011,5.744243 18.190102,5.7442429 0 0 1 -18.190108,-5.744243 18.190102,5.7442429 0 0 1 18.190108,-5.744243 18.190102,5.7442429 0 0 1 18.19011,5.744243 z"
         style="fill:#aaeeff;fill-opacity:1;stroke:#2ad4ff;stroke-width:1.55799997;stroke-linecap:butt;stroke-miterlimit:4;stroke-dasharray:none;stroke-dashoffset:0;stroke-opacity:0.96078431;paint-order:stroke markers fill" />
      <path
         style="fill:#a05a2c;fill-opacity:0.94554455;stroke:#552200;stroke-width:1.55799997;stroke-linecap:butt;stroke-miterlimit:4;stroke-dasharray:none;stroke-dashoffset:0;stroke-opacity:1;paint-order:stroke markers fill"
         d="m 81.098273,80.896095 c -0.95738,1.914748 -6.12331,4.318979 -13.67677,4.318978 -7.55347,0 -12.17233,-2.40423 -13.67677,-4.318978 l -4.513338,-7.65899 c 0,-2.385306 10.636638,-1.90446 18.190108,-1.90446 7.55346,0 18.19011,-0.480846 18.19011,1.90446 z"
         id="path950"
         inkscape:connector-curvature="0"
         sodipodi:nodetypes="csccscc" />
      <path
         sodipodi:nodetypes="sssss"
         inkscape:connector-curvature="0"
         style="opacity:1;fill:#d38d5f;fill-opacity:0.94554455;stroke:#552200;stroke-width:1.55799997;stroke-linecap:butt;stroke-miterlimit:4;stroke-dasharray:none;stroke-dashoffset:0;stroke-opacity:1;paint-order:stroke markers fill"
         d="m 85.611613,73.237105 c 0,3.172458 -8.14399,5.744243 -18.19011,5.744243 -10.04612,0 -18.190108,-2.571785 -18.190108,-5.744243 0,-3.172458 8.143988,-5.744243 18.190108,-5.744243 10.04612,-10e-7 18.19011,2.571785 18.19011,5.744243 z"
         id="path952" />
      <path
         sodipodi:nodetypes="cccccccccccccc"
         inkscape:connector-curvature="0"
         id="path987"
         d="m 53.445843,86.095188 v 7.220786 c 2.5752,0.958954 6.43003,1.628548 10.84791,1.806943 v -7.219524 c -0.30965,-0.01072 -0.61817,-0.0239 -0.92519,-0.03954 -0.54152,-0.03099 -1.07721,-0.0696 -1.60506,-0.115693 -0.52784,-0.04608 -1.04718,-0.09957 -1.55608,-0.160289 -0.50889,-0.06068 -1.00671,-0.128495 -1.49159,-0.203202 -0.48498,-0.07478 -0.9564,-0.156361 -1.41249,-0.244433 -0.45605,-0.08811 -0.8962,-0.182611 -1.31879,-0.283136 -0.42253,-0.100394 -0.827,-0.206686 -1.21191,-0.318478 -0.38512,-0.111877 -0.75015,-0.229121 -1.09375,-0.351291 -0.079,-0.03044 -0.15669,-0.06116 -0.23305,-0.09213 z"
         style="fill:#d5f6ff;fill-opacity:0.94509804;stroke:none;stroke-width:1.34182966;stroke-linecap:butt;stroke-miterlimit:4;stroke-dasharray:none;stroke-dashoffset:0;stroke-opacity:0.96078431;paint-order:stroke markers fill" />
      <path
         id="path989"
         d="m 62.177083,73.162499 c 0,0.495673 -1.27244,0.897495 -2.84207,0.897495 -1.56963,0 -2.84206,-0.401822 -2.84206,-0.897495 0,-0.495672 1.27243,-0.897494 2.84206,-0.897494 1.56963,0 2.84207,0.401822 2.84207,0.897494 z"
         style="opacity:1;fill:#552200;fill-opacity:1;stroke:none;stroke-width:0.24333514;stroke-linecap:butt;stroke-miterlimit:4;stroke-dasharray:none;stroke-dashoffset:0;stroke-opacity:1;paint-order:stroke markers fill"
         inkscape:connector-curvature="0"
         sodipodi:nodetypes="sssss" />
      <path
         sodipodi:nodetypes="sssss"
         inkscape:connector-curvature="0"
         style="opacity:1;fill:#784421;fill-opacity:0.94554455;stroke:none;stroke-width:0.24333514;stroke-linecap:butt;stroke-miterlimit:4;stroke-dasharray:none;stroke-dashoffset:0;stroke-opacity:1;paint-order:stroke markers fill"
         d="m 62.824063,73.162499 c 0,0.495673 -1.27244,0.897495 -2.84207,0.897495 -1.56963,0 -2.84206,-0.401822 -2.84206,-0.897495 0,-0.495672 1.27243,-0.897494 2.84206,-0.897494 1.56963,0 2.84207,0.401822 2.84207,0.897494 z"
         id="path991" />
      <path
         id="path989-6"
         d="m 72.760423,75.808333 c 0,0.495673 -1.27244,0.897495 -2.84207,0.897495 -1.56963,0 -2.84206,-0.401822 -2.84206,-0.897495 0,-0.495672 1.27243,-0.897494 2.84206,-0.897494 1.56963,0 2.84207,0.401822 2.84207,0.897494 z"
         style="opacity:1;fill:#552200;fill-opacity:1;stroke:none;stroke-width:0.24333514;stroke-linecap:butt;stroke-miterlimit:4;stroke-dasharray:none;stroke-dashoffset:0;stroke-opacity:1;paint-order:stroke markers fill"
         inkscape:connector-curvature="0"
         sodipodi:nodetypes="sssss" />
      <path
         sodipodi:nodetypes="sssss"
         inkscape:connector-curvature="0"
         style="opacity:1;fill:#784421;fill-opacity:0.94554455;stroke:none;stroke-width:0.24333514;stroke-linecap:butt;stroke-miterlimit:4;stroke-dasharray:none;stroke-dashoffset:0;stroke-opacity:1;paint-order:stroke markers fill"
         d="m 73.407403,75.808333 c 0,0.495673 -1.27244,0.897495 -2.84207,0.897495 -1.56963,0 -2.84206,-0.401822 -2.84206,-0.897495 0,-0.495672 1.27243,-0.897494 2.84206,-0.897494 1.56963,0 2.84207,0.401822 2.84207,0.897494 z"
         id="path991-7" />
      <path
         id="path989-5"
         d="m 72.760423,70.516666 c 0,0.652167 -1.67417,1.180852 -3.73937,1.180852 -2.06519,0 -3.73935,-0.528685 -3.73935,-1.180852 0,-0.652165 1.67416,-1.18085 3.73935,-1.18085 2.0652,0 3.73937,0.528685 3.73937,1.18085 z"
         style="opacity:1;fill:#552200;fill-opacity:1;stroke:none;stroke-width:0.32016075;stroke-linecap:butt;stroke-miterlimit:4;stroke-dasharray:none;stroke-dashoffset:0;stroke-opacity:1;paint-order:stroke markers fill"
         inkscape:connector-curvature="0"
         sodipodi:nodetypes="sssss" />
      <path
         sodipodi:nodetypes="sssss"
         inkscape:connector-curvature="0"
         style="opacity:1;fill:#784421;fill-opacity:0.94554455;stroke:none;stroke-width:0.32016075;stroke-linecap:butt;stroke-miterlimit:4;stroke-dasharray:none;stroke-dashoffset:0;stroke-opacity:1;paint-order:stroke markers fill"
         d="m 73.611663,70.516666 c 0,0.652167 -1.67417,1.180852 -3.73936,1.180852 -2.0652,0 -3.73936,-0.528685 -3.73936,-1.180852 0,-0.652165 1.67416,-1.18085 3.73936,-1.18085 2.06519,0 3.73936,0.528685 3.73936,1.18085 z"
         id="path991-3" />
      <path
         inkscape:connector-curvature="0"
         id="path1019"
         d="m 58.208333,78.454166 1.32292,3.96875 v -3.96875 l 3.96875,-1.322916 -6.61458,1.322916 z"
         style="fill:#552200;fill-opacity:1;stroke:none;stroke-width:0.26458332px;stroke-linecap:butt;stroke-linejoin:miter;stroke-opacity:1" />
      <path
         sodipodi:nodetypes="csc"
         inkscape:connector-curvature="0"
         id="ellipse916-2"
         d="m 97.742281,103.62974 c -1.433948,1.01818 -13.1574,4.50643 -26.828621,0.92041 C 57.243007,100.96428 48.676247,91.684515 48.14708,91.155348"
         style="fill:none;fill-opacity:1;stroke:#d35f5f;stroke-width:0.94046795;stroke-linecap:butt;stroke-miterlimit:4;stroke-dasharray:none;stroke-dashoffset:0;stroke-opacity:0.96078431;paint-order:stroke markers fill" />
      <path
         style="fill:none;fill-opacity:1;stroke:#d35f5f;stroke-width:0;stroke-linecap:butt;stroke-miterlimit:4;stroke-dasharray:none;stroke-dashoffset:0;stroke-opacity:0.96078431;paint-order:stroke markers fill"
         d="m 48.390405,92.189992 c 1.231296,-3.97066 13.311626,-4.28227 26.982173,-0.69598 13.670546,3.58628 23.754551,9.712398 22.523255,13.683068"
         id="path915"
         inkscape:connector-curvature="0"
         sodipodi:nodetypes="csc" />
      <g
         transform="translate(-22.754946,25.692262)"
         id="g1020">
        <path
           inkscape:connector-curvature="0"
           style="opacity:1;fill:#f4d7d7;fill-opacity:1;stroke:#d35f5f;stroke-width:4.79857588;stroke-linecap:butt;stroke-miterlimit:4;stroke-dasharray:none;stroke-dashoffset:0;stroke-opacity:0.96078431;paint-order:stroke markers fill"
           d="m 535.24609,238.18359 c -11.29916,-0.41997 -90.08634,44.7879 -96.09961,54.36329 -6.01322,9.57541 40.84493,121.52997 46.13086,131.52539 5.28586,9.9953 57.09537,42.53122 68.39454,42.95117 11.29912,0.41987 65.38318,-28.18047 71.39648,-37.75586 6.01327,-9.5754 8.28586,-70.71366 3,-80.70899 -5.28593,-9.99534 -81.5231,-109.95508 -92.82227,-110.375 z m -82.41406,54.12305 a 7.5,7.5 0 0 1 4.62305,1.73828 7.5,7.5 0 0 1 0.95703,10.5625 7.5,7.5 0 0 1 -10.5625,0.95899 7.5,7.5 0 0 1 -0.95899,-10.56446 7.5,7.5 0 0 1 5.94141,-2.69531 z"
           id="path864"
           transform="scale(0.26458333)" />
        <path
           inkscape:connector-curvature="0"
           id="path847"
           style="font-style:normal;font-variant:normal;font-weight:normal;font-stretch:normal;font-size:10.58333302px;line-height:1.25;font-family:Pacifico;-inkscape-font-specification:Pacifico;letter-spacing:0px;word-spacing:0px;fill:#000000;fill-opacity:1;stroke:none;stroke-width:0.43088022"
           d="m 129.40473,79.504938 q -0.57596,-0.81704 -1.16,-1.944687 -0.32678,-0.613132 -0.25035,-0.983317 0.0764,-0.37019 0.6034,-0.699532 1.4641,-0.884508 3.7649,-1.958143 2.31488,-1.083568 4.58403,-1.90295 0.42168,-0.149656 0.77109,0.04687 0.3494,0.196521 0.68704,0.67547 0.60575,0.859304 0.1268,1.196934 -0.19718,0.139058 -0.51037,0.233245 -1.38514,0.42817 -3.54506,1.40251 -2.14583,0.964409 -3.97367,2.020954 0.25566,0.452397 0.63301,0.987697 1.73782,2.465208 4.08503,2.62406 2.35716,0.172944 4.85053,-1.584728 1.67635,-1.181709 1.91673,-2.785092 0.24038,-1.603383 -0.99098,-3.350155 -0.79443,-1.126955 -1.9311,-1.991557 -1.12674,-0.850516 -2.32992,-1.330854 -0.25587,-0.09376 -0.40483,-0.305059 -0.16881,-0.239472 -0.0709,-0.519369 0.11197,-0.289845 0.40774,-0.498432 0.33809,-0.238327 0.62883,-0.274584 0.30484,-0.04619 0.67665,0.09237 1.34727,0.505266 2.60888,1.577021 1.27567,1.061857 2.12971,2.273295 1.2115,1.718601 1.48956,3.399339 0.29215,1.670807 -0.38631,3.161269 -0.67847,1.490457 -2.31252,2.642404 -2.12712,1.499483 -4.31476,1.776398 -2.17355,0.266989 -4.18893,-0.737327 -2.01538,-1.004311 -3.59431,-3.244124 z" />
        <path
           inkscape:connector-curvature="0"
           id="path849"
           style="font-style:normal;font-variant:normal;font-weight:normal;font-stretch:normal;font-size:10.58333302px;line-height:1.25;font-family:Pacifico;-inkscape-font-specification:Pacifico;letter-spacing:0px;word-spacing:0px;fill:#000000;fill-opacity:1;stroke:none;stroke-width:0.43088022"
           d="m 135.73207,88.480708 q -0.37735,-0.5353 0.0272,-1.157901 0.41451,-0.608527 1.65417,-1.482394 1.83129,-1.290949 3.84688,-1.931582 0.4979,-0.161194 0.87964,-0.0086 0.40574,0.156795 0.77317,0.678018 0.19861,0.281741 0.20761,0.444079 0.009,0.162355 -0.18823,0.301356 -0.22541,0.158867 -1.16322,0.50368 -0.66277,0.256345 -1.14496,0.469735 -0.4822,0.213384 -1.14174,0.593977 1.53918,-0.389143 2.70701,-0.347819 1.16784,0.04133 1.87913,0.362317 0.7212,0.335074 1.0489,0.799943 0.64548,0.915652 -0.27017,1.561125 -0.18314,0.129089 -0.97684,0.498831 -0.64293,0.284509 -0.7838,0.383817 -0.49304,0.347562 -0.24478,0.699735 0.27805,0.394431 1.3348,0.577317 0.31223,0.05404 0.45126,0.251256 0.12909,0.183128 0.0296,0.400903 -0.0755,0.22192 -0.34316,0.410607 -0.52122,0.367423 -1.01565,0.294226 -0.68657,-0.106454 -1.35975,-0.433225 -0.64916,-0.322607 -1.06626,-0.914221 -0.52631,-0.746603 -0.42401,-1.409158 0.11223,-0.648464 0.76022,-1.105264 0.2113,-0.148963 0.4524,-0.255649 0.3016,-0.170435 0.40021,-0.239944 0.22541,-0.158868 0.11615,-0.313845 -0.14895,-0.211296 -0.87616,-0.225841 -0.7032,-0.01038 -1.71631,0.197701 -1.0131,0.208087 -2.02136,0.602532 -0.77132,0.311772 -1.15975,0.269284 -0.36442,-0.03833 -0.67224,-0.475049 z" />
        <path
           inkscape:connector-curvature="0"
           id="path851"
           style="font-style:normal;font-variant:normal;font-weight:normal;font-stretch:normal;font-size:10.58333302px;line-height:1.25;font-family:Pacifico;-inkscape-font-specification:Pacifico;letter-spacing:0px;word-spacing:0px;fill:#000000;fill-opacity:1;stroke:none;stroke-width:0.43088022"
           d="m 148.41164,90.403961 q -0.41707,-0.591648 -0.35796,-1.076155 0.0732,-0.494431 0.56624,-0.841993 0.49304,-0.347559 1.08516,-0.195614 0.61613,0.156104 1.02328,0.733666 0.36742,0.521213 0.34226,1.023959 -0.0252,0.502746 -0.49003,0.830445 -0.56348,0.397216 -1.15975,0.269288 -0.58219,-0.137863 -1.0092,-0.743599 z m -7.64411,5.219897 q -0.64547,-0.915649 -0.29539,-1.795052 0.36003,-0.865315 1.4306,-1.620039 0.63392,-0.446866 1.72923,-0.987037 1.11933,-0.536013 2.15738,-0.888202 0.54016,-0.190986 0.85815,-0.09885 0.318,0.09214 0.64571,0.557004 0.50644,0.718429 0.0275,1.056064 -0.35217,0.248259 -1.82276,0.884267 -1.78789,0.754251 -2.33728,1.141536 -0.4226,0.297915 -0.56855,0.569507 -0.14595,0.271571 0.0427,0.539224 0.17874,0.253567 0.79903,0.385649 0.6203,0.132088 1.82785,0.229761 0.31638,0.03001 0.46534,0.241318 0.12909,0.183141 0.0296,0.400909 -0.0896,0.231888 -0.38541,0.440405 -0.56348,0.397211 -1.06206,0.348034 -2.68763,-0.193036 -3.54163,-1.404508 z" />
        <path
           inkscape:connector-curvature="0"
           id="path853"
           style="font-style:normal;font-variant:normal;font-weight:normal;font-stretch:normal;font-size:10.58333302px;line-height:1.25;font-family:Pacifico;-inkscape-font-specification:Pacifico;letter-spacing:0px;word-spacing:0px;fill:#000000;fill-opacity:1;stroke:none;stroke-width:0.43088022"
           d="m 142.69496,98.358034 q -0.37736,-0.535301 0.0272,-1.157902 0.41451,-0.608526 1.65416,-1.482385 1.83129,-1.290955 3.84688,-1.931585 0.4979,-0.161194 0.87964,-0.0086 0.40575,0.156796 0.77317,0.678017 0.19861,0.281734 0.20762,0.444085 0.009,0.162349 -0.18823,0.301356 -0.22541,0.158868 -1.16322,0.503681 -0.66277,0.256341 -1.14496,0.469736 -0.4822,0.213382 -1.14173,0.593969 1.53917,-0.389138 2.707,-0.347812 1.16784,0.04132 1.87912,0.362309 0.72121,0.335082 1.04891,0.79995 0.64548,0.91565 -0.27016,1.56112 -0.5494,0.387279 -2.20473,1.090267 -1.41423,0.59629 -1.80866,0.87434 -0.56347,0.39721 -0.27551,0.80573 0.19862,0.28173 0.80483,0.42375 0.63021,0.14618 1.86179,0.24801 0.31637,0.03 0.46533,0.24133 0.12909,0.18314 0.0296,0.40089 -0.0896,0.2319 -0.38542,0.44042 -0.56347,0.39722 -1.06206,0.34803 -1.17361,-0.0794 -2.14908,-0.44614 -0.96555,-0.35262 -1.59114,-1.24012 -0.50645,-0.71844 -0.35612,-1.37267 0.16442,-0.66417 0.9533,-1.220251 0.39443,-0.27805 1.54771,-0.795818 1.01656,-0.442485 1.35465,-0.680813 0.22541,-0.15887 0.11615,-0.313848 -0.12908,-0.183135 -0.84637,-0.183583 -0.69327,0.0037 -1.7163,0.197701 -1.01311,0.208089 -2.02137,0.602535 -0.77131,0.311778 -1.15975,0.269284 -0.36441,-0.03833 -0.67224,-0.475049 z" />
        <path
           inkscape:connector-curvature="0"
           id="path855"
           style="font-style:normal;font-variant:normal;font-weight:normal;font-stretch:normal;font-size:10.58333302px;line-height:1.25;font-family:Pacifico;-inkscape-font-specification:Pacifico;letter-spacing:0px;word-spacing:0px;fill:#000000;fill-opacity:1;stroke:none;stroke-width:0.43088022"
           d="m 152.67216,109.25082 q 0.29444,0.657 -0.22677,1.02442 -0.35217,0.24826 -0.8623,0.12287 -0.48612,-0.12124 -0.90319,-0.7129 -0.71498,-1.01426 -0.55196,-2.0992 0.18705,-1.08077 1.2013,-1.79575 0.54939,-0.38729 1.18608,0.007 0.70459,0.43114 1.18909,0.49025 0.49859,0.0492 0.93529,-0.25866 0.25357,-0.17874 0.30086,-0.38085 0.0572,-0.18798 -0.052,-0.34293 -0.26811,-0.38035 -1.14521,-0.45793 -0.86716,-0.0635 -2.01859,0.15775 -1.13735,0.21132 -2.21189,0.6314 -0.77131,0.31177 -1.15975,0.26928 -0.36441,-0.0383 -0.67224,-0.47505 -0.30784,-0.43668 -0.14688,-0.86646 0.18497,-0.42561 0.79745,-0.96274 0.61244,-0.53716 1.89434,-1.44082 2.16939,-1.52927 4.82974,-2.750944 2.67027,-1.207592 4.86785,-1.470418 2.22158,-0.258675 3.07559,0.952796 0.4568,0.648001 0.17138,1.439646 -0.26141,0.79581 -1.14888,1.42142 -1.42278,1.00296 -3.54414,1.25425 -2.10727,0.24135 -5.47061,-0.1923 -0.76231,0.47411 -1.53709,1.02029 2.23753,-0.56513 3.64207,-0.24784 1.41864,0.30736 1.95487,1.06805 0.49652,0.70434 0.31548,1.46458 -0.17112,0.77433 -0.87546,1.27084 -0.77477,0.54618 -1.70083,0.60853 -0.92604,0.0624 -2.10844,-0.53804 -0.36299,0.38245 -0.35331,0.75516 0.0337,0.37688 0.32817,1.03389 z m 8.72367,-9.671188 q -0.17875,-0.253559 -1.12974,-0.0471 -0.93689,0.196539 -2.38508,0.774588 -1.42417,0.5822 -3.00421,1.42189 1.64403,0.14848 3.25271,-0.14206 1.61862,-0.27644 2.6047,-0.97157 0.45079,-0.31777 0.62075,-0.58519 0.16996,-0.267422 0.0409,-0.450552 z" />
        <path
           inkscape:connector-curvature="0"
           id="path857"
           style="font-style:normal;font-variant:normal;font-weight:normal;font-stretch:normal;font-size:10.58333302px;line-height:1.25;font-family:Pacifico;-inkscape-font-specification:Pacifico;letter-spacing:0px;word-spacing:0px;fill:#000000;fill-opacity:1;stroke:none;stroke-width:0.43088022"
           d="m 131.03257,102.98224 q -0.37735,-0.5353 0.0272,-1.1579 0.41451,-0.60853 1.65416,-1.48239 1.8313,-1.29094 3.84688,-1.931582 0.49791,-0.1612 0.87964,-0.0086 0.40575,0.15679 0.77321,0.677971 0.19862,0.281727 0.20761,0.444078 0.009,0.162357 -0.18823,0.301356 -0.22542,0.158871 -1.16322,0.503677 -0.66278,0.25635 -1.14497,0.46974 -0.46811,0.20346 -1.12765,0.58405 1.36691,-0.39422 2.49502,-0.40925 1.13805,-9.4e-4 1.89159,0.29027 0.77756,0.29536 1.12512,0.78839 0.34756,0.49304 0.2612,0.84914 -0.0764,0.3702 -0.54134,0.69787 -0.45077,0.31777 -1.82275,0.88427 -0.58657,0.24479 -0.86993,0.38129 2.22921,-0.5171 3.62383,-0.2139 1.39461,0.30321 1.92092,1.04981 0.64548,0.91565 -0.27018,1.56112 -0.54939,0.38729 -2.20471,1.09027 -1.41424,0.5963 -1.80866,0.87434 -0.56349,0.39721 -0.27551,0.80573 0.19862,0.28172 0.80481,0.42375 0.63022,0.14618 1.8618,0.24802 0.31638,0.03 0.46534,0.24131 0.12908,0.18314 0.0296,0.40091 -0.0896,0.23188 -0.38541,0.44041 -0.56347,0.39721 -1.06206,0.34803 -1.17361,-0.0794 -2.14908,-0.44615 -0.96554,-0.35262 -1.59114,-1.24011 -0.50645,-0.71843 -0.35612,-1.37267 0.16442,-0.66417 0.9533,-1.22026 0.39443,-0.27804 1.54771,-0.79582 1.01657,-0.44247 1.35466,-0.6808 0.22541,-0.15887 0.11615,-0.31385 -0.12908,-0.18313 -0.84637,-0.18358 -0.70321,-0.0104 -1.71631,0.19771 -1.01311,0.20807 -2.02136,0.60253 -0.78541,0.32169 -1.15975,0.26927 -0.36441,-0.0383 -0.6822,-0.48909 -0.32771,-0.46486 -0.0598,-1.01219 0.29189,-0.54315 0.92578,-0.99002 0.5353,-0.37735 1.64887,-0.95147 0.98101,-0.52285 1.26275,-0.72145 0.2254,-0.15887 0.11615,-0.31384 -0.14897,-0.2113 -0.88449,-0.17781 -0.73552,0.0335 -1.74285,0.27967 -0.9974,0.26028 -1.88719,0.61339 -0.77132,0.31178 -1.15974,0.26928 -0.36443,-0.0383 -0.67224,-0.47505 z" />
        <path
           inkscape:connector-curvature="0"
           id="path859"
           style="font-style:normal;font-variant:normal;font-weight:normal;font-stretch:normal;font-size:10.58333302px;line-height:1.25;font-family:Pacifico;-inkscape-font-specification:Pacifico;letter-spacing:0px;word-spacing:0px;fill:#000000;fill-opacity:1;stroke:none;stroke-width:0.43088022"
           d="m 144.06136,115.5416 q 0.12908,0.18314 0.0296,0.4009 -0.0896,0.23188 -0.3854,0.44041 -0.50713,0.35749 -1.04219,0.37621 -0.8838,0.0326 -1.67867,-0.37709 -0.78495,-0.39559 -1.41058,-1.28305 -0.95331,-1.35234 -0.67667,-2.66498 0.29074,-1.32257 1.67125,-2.29573 0.97199,-0.6852 2.0911,-0.86257 1.13319,-0.1873 2.13268,0.18357 1.00942,0.38495 1.65492,1.30058 0.57596,0.81703 0.43048,1.65764 -0.13139,0.83067 -0.96252,1.41656 -0.972,0.68519 -2.17286,0.47737 -1.17684,-0.20368 -2.76708,-1.59203 -0.40965,0.79488 0.15637,1.59783 0.40715,0.57756 0.93296,0.75518 0.53577,0.19167 1.51724,0.23785 0.33046,0.0201 0.47942,0.23138 z m 0.83663,-4.04806 q -0.36742,-0.52121 -1.23135,-0.46047 -0.854,0.0748 -1.7133,0.68059 l -0.0282,0.0198 q 0.78312,0.69209 1.51518,0.893 0.73206,0.2009 1.25328,-0.16652 0.26768,-0.18865 0.31337,-0.45286 0.0697,-0.26004 -0.10901,-0.5136 z" />
        <path
           inkscape:connector-curvature="0"
           id="path861"
           style="font-style:normal;font-variant:normal;font-weight:normal;font-stretch:normal;font-size:10.58333302px;line-height:1.25;font-family:Pacifico;-inkscape-font-specification:Pacifico;letter-spacing:0px;word-spacing:0px;fill:#000000;fill-opacity:1;stroke:none;stroke-width:0.43088022"
           d="m 146.71514,118.07971 q -0.19861,-0.28173 -0.20092,-0.55424 -0.002,-0.2725 0.26535,-0.46116 l 0.12261,-0.0654 q 1.74655,-0.87272 4.04896,-1.88425 2.3024,-1.01152 4.01569,-1.6921 1.06045,-0.41015 1.76551,0.59002 0.63554,0.90156 0.058,1.30871 -0.12675,0.0894 -0.31154,0.15631 -1.7514,0.68636 -4.30553,1.58011 -2.54004,0.88381 -4.49097,1.43669 -0.56001,0.16283 -0.96716,-0.41474 z m -3.74413,1.83805 q -0.43693,-0.61983 -0.32724,-1.18215 0.11961,-0.54824 0.66902,-0.93551 0.63391,-0.44685 1.26252,-0.36281 0.63853,0.0981 1.09533,0.74615 0.43693,0.61981 0.3455,1.1482 -0.0674,0.53254 -0.65908,0.94961 -0.64799,0.45679 -1.30063,0.36858 -0.63852,-0.0981 -1.08539,-0.73205 z" />
      </g>
      <path
         style="fill:none;fill-opacity:1;stroke:#d35f5f;stroke-width:0.94046795;stroke-linecap:butt;stroke-miterlimit:4;stroke-dasharray:none;stroke-dashoffset:0;stroke-opacity:0.96078431;paint-order:stroke markers fill"
         d="m 97.742281,103.62974 c -1.433948,1.01818 -13.1574,4.50643 -26.828621,0.92041 C 57.243007,100.96428 48.676247,91.684515 48.14708,91.155348"
         id="path974"
         inkscape:connector-curvature="0"
         sodipodi:nodetypes="csc" />
      <path
         sodipodi:nodetypes="csc"
         inkscape:connector-curvature="0"
         id="path976"
         d="m 48.390405,92.189992 c 1.231296,-3.97066 13.311626,-4.28227 26.982173,-0.69598 13.670546,3.58628 23.754551,9.712398 22.523255,13.683068"
         style="fill:none;fill-opacity:1;stroke:#d35f5f;stroke-width:0;stroke-linecap:butt;stroke-miterlimit:4;stroke-dasharray:none;stroke-dashoffset:0;stroke-opacity:0.96078431;paint-order:stroke markers fill" />
    </g>
  </g>
</svg>
